<?xml version="1.0" encoding="utf-8"?>
<!-- Generator: Adobe Illustrator 24.2.3, SVG Export Plug-In . SVG Version: 6.00 Build 0)  -->
<svg version="1.1" id="Layer_1" xmlns="http://www.w3.org/2000/svg" xmlns:xlink="http://www.w3.org/1999/xlink" x="0px" y="0px"
	 viewBox="0 0 3733 3733" style="enable-background:new 0 0 3733 3733;" xml:space="preserve">
<style type="text/css">
	.st0{fill:#F7DC6F;}
</style>
<path class="st0" d="M3276.2,3733H456.8C204.5,3733,0,3528.5,0,3276.2V456.8C0,204.5,204.5,0,456.8,0h2819.3
	C3528.5,0,3733,204.5,3733,456.8v2819.3C3733,3528.5,3528.5,3733,3276.2,3733z"/>
<g transform="translate(0.000000,3733.000000) scale(0.100000,-0.100000)">
	<path d="M16957,32884c-1-1-63-5-137-9c-161-8-225-12-305-20c-33-3-78-8-100-10c-63-6-137-14-175-20c-19-2-57-7-85-10
		c-27-4-52-8-56-11c-4-2-31-7-61-10c-65-8-93-12-93-14c0-1-11-3-25-5c-39-5-104-17-110-20c-3-2-25-6-50-10s-49-9-55-13
		c-5-3-16-7-25-8c-52-6-262-59-400-102c-47-14-94-27-105-29c-10-2-23-9-27-16c-4-6-8-9-8-5c0,6-72-14-115-32c-11-5-51-20-90-33
		c-68-24-97-35-162-63c-17-8-36-14-42-14s-11-4-11-8c0-5-6-9-12-9c-7,0-40-12-73-28c-116-53-150-68-158-69c-4-1-11-7-16-14
		c-5-8-11-13-15-12c-12,3-66-22-66-31c0-5-6-6-13-3c-7,2-23-5-35-16s-22-18-22-16c0,8-134-66-138-76c-2-4-9-8-16-8c-8,0-25-9-38-20
		c-14-10-28-17-30-14c-3,2-11-2-18-11c-7-8-19-15-26-15c-8,0-14-4-14-9s-13-14-29-21c-16-6-38-20-50-31s-21-17-21-13
		c0,3-23-10-50-30c-28-20-55-36-60-36c-6,0-10-4-10-8c0-9-46-34-70-39c-8-1-26-4-40-7c-14-2-43-7-65-11c-22-3-49-8-60-10
		c-34-7-147-42-202-63c-29-11-54-17-57-14c-4,3-6,0-6-7s-4-10-9-6c-5,3-12,1-16-5s-11-8-16-5c-5,4-9,1-9-4c0-6-4-11-10-11
		c-15,0-125-53-128-62c-2-5-7-6-12-3s-14-1-22-8c-7-7-17-14-21-14c-19-2-127-65-127-74c0-6-4-8-9-5s-21-7-37-22c-15-15-24-21-20-14
		s-8,2-26-11c-93-64-128-92-128-99c0-4-3-7-7-6c-14,5-53-28-45-37c4-5,2-5-4-2c-11,7-55-28-146-114c-26-25-48-44-48-41s-22-18-50-46
		c-27-28-50-56-50-61s-5-13-12-17c-7-5-9-2-3,7c4,8-20-15-53-51s-58-68-56-72s-4-9-15-13c-10-3-26-20-35-38c-8-18-16-28-16-22
		c0,5-8-2-17-15c-10-14-27-35-38-48s-18-24-16-25s-13-20-32-41c-20-22-34-43-31-48c3-4,1-8-4-8c-6,0-36-39-67-87
		c-32-49-67-101-78-117s-20-35-20-42s-6-15-14-18c-7-3-13-10-13-15c0-6-14-34-31-63c-29-47-120-227-162-318c-8-19-13-38-11-42
		c3-4,1-8-5-8c-8,0-19-22-26-50c-1-3-7-18-15-35c-34-78-42-98-45-109c-1-6-7-24-14-41c-6-16-15-41-20-55s-12-34-17-45
		c-9-26-15-47-16-62c-1-7-5-13-9-13s-10-17-15-37c-8-41-10-49-14-60c-2-5-4-12-5-18c-1-5-7-23-14-39c-6-16-9-31-6-34c2-3,1-10-3-16
		c-5-6-14-29-20-51c-26-92-44-161-47-180c-1-11-8-42-15-70c-7-27-14-59-16-70s-12-63-23-115s-17-98-15-102c3-4,1-8-3-8
		c-5,0-9-8-10-17c-2-37-14-126-17-132c-3-4-7-29-10-56c-5-44-12-56-60-102c-30-29-51-53-48-53c4,0-6-9-23-20c-16-11-28-20-25-20
		s-28-35-70-79c-90-94-130-139-130-146c0-3-15-20-32-39c-58-58-93-100-144-166c-27-36-54-72-61-80c-57-72-113-151-113-160
		c0-5-5-10-12-10c-6,0-9-3-6-6s-7-19-23-37c-16-17-29-37-29-44s-4-13-8-13c-5,0-19-19-33-41c-13-23-31-52-39-64
		c-58-89-78-124-73-129c4-3,2-6-4-6c-13,0-66-87-66-107c0-7-4-13-8-13c-5,0-15-13-24-30c-9-16-12-30-8-30s-2-7-13-15
		c-10-8-14-15-9-15c6,0,5-3-1-8c-13-8-59-94-56-104c1-5-2-8-7-8c-9,0-27-40-22-49c2-2-2-7-7-10c-11-7-78-144-73-150c1-2-1-7-6-10
		c-13-10-33-49-33-66c0-8-5-15-12-15c-6,0-9-3-5-6c3-3-3-22-13-42c-11-19-17-39-14-44c3-4,1-8-4-8c-9,0-68-139-64-152c1-5-2-8-8-8
		c-5,0-10-5-10-11s-14-45-31-87c-17-43-32-81-33-87c-2-5-9-23-15-40c-7-16-14-37-16-45s-4-16-5-17c-2-2-3-6-5-10c-1-5-5-16-9-25
		s-9-23-10-32c-1-8-5-19-9-22c-4-4-7-18-7-30c0-13-5-26-11-29c-6-4-8-13-5-20c3-8,2-15-2-17c-7-3-76-218-86-268c-3-14-10-41-16-60
		s-14-46-17-60c-7-36-9-41-21-85c-10-38-19-75-27-120c-2-11-8-35-14-54s-9-37-6-39c2-3,0-12-4-21c-5-9-12-32-15-51s-8-46-11-60
		s-16-90-30-170s-27-154-29-165s-7-45-10-76c-4-31-8-66-11-77c-2-12-6-47-10-79c-3-32-8-71-10-88c-4-30-10-87-20-195
		c-16-183-28-458-28-660c0-157,11-511,19-585c2-22,6-76,9-120c2-44,7-91,9-105c5-23,15-116,21-185c1-17,6-50,10-75s9-56,10-70
		c6-54,34-219,56-327c5-28,11-61,12-72c1-12,4-21,7-21s6-8,6-17c1-27,12-81,28-143c8-30,12-58,10-62c-3-5-1-8,5-8c5,0,9-8,9-17
		c-1-10,7-45,17-78s19-64,20-70c2-15,19-77,51-183c2-7,4-14,4-17s8-24,16-47c9-24,17-47,18-53c1-5,7-23,13-40c7-16,28-75,48-130
		c21-55,45-118,55-140c9-22,28-66,40-97c13-32,28-58,32-58c5,0,7-4,3-9c-3-5-1-12,5-16c5-3,10-14,10-24s7-24,15-31s12-16,9-21
		s0-9,5-9c6,0,11-7,11-15s5-15,12-15c6,0,9-3,5-6c-13-14,175-330,257-431c8-10,38-47,67-83s66-79,83-97s36-38,41-45
		c9-12,80-97,141-168c82-95,114-135,114-142c0-4,7-8,15-8s14-4,12-9c-1-5,15-27,36-49c20-23,37-44,37-47s15-21,34-40
		c19-18,32-36,29-39c-3-2,4-11,16-18s21-17,21-23s8-18,18-27c19-18,21-21,73-90c20-26,39-45,43-41c3,3,6,0,6-8s10-25,23-39
		s42-51,66-82c24-32,48-58,54-58s8-3,4-6c-3-4-1-12,6-19c7-6,21-24,32-39c40-56,91-120,112-143c12-12,20-23,17-23c-5,0,10-19,43-56
		c12-13,20-24,17-24c-4,0,7-15,22-34c48-56,59-71,61-79c1-5,12-21,25-36s33-41,43-59c11-18,22-32,25-32s14-16,24-35s23-32,28-29
		s7,1,6-4c-2-5,13-31,32-58s40-56,45-65c6-9,35-51,65-94s64-93,74-111c11-18,24-30,29-27c6,3,7,1,4-4c-4-6,6-23,21-39
		c15-15,21-24,14-20c-11,7-11,4,0-13c7-12,16-21,20-21c5,0,8-5,8-11c0-11,79-131,93-140c5-3,8-10,6-14c-2-8,17-39,39-61
		c7-8,10-14,5-14c-4,0,0-7,10-14c10-8,19-18,19-23c1-16,60-113,69-113c5,0,8-3,8-7c-3-18,2-31,21-51c12-12,18-22,15-22
		c-4,0,2-12,12-28c10-15,28-44,38-64c11-21,23-38,28-38c4,0,5-4,2-10c-3-5-1-10,6-10s9-3,6-7c-4-3-2-12,4-19c10-13,63-110,125-231
		c20-40,40-73,43-73c4,0,8-10,8-22c1-13,7-24,13-26c5-2,10-12,10-23s7-22,15-25c8-4,13-10,10-14s15-47,40-95c25-47,45-93,45-101
		s5-14,11-14c5,0,7-4,4-10c-3-5-1-10,6-10s9-3,6-6c-4-4,0-19,8-33c20-36,90-191,99-218c4-13,12-23,17-23c6,0,7-5,3-11
		c-3-6-3-14,2-18c5-3,29-48,54-99c24-50,48-92,53-92c4,0,6-4,3-9s5-25,19-45s25-40,25-45c0-4,8-16,18-27c9-10,36-45,60-77
		c23-31,47-57,52-57c6,0,10-7,10-16s9-18,20-21s20-12,20-19c0-8,3-14,8-14c4,0,21-13,38-28c73-63,84-72,84-64c0,4,4,2,8-4
		c13-19,129-93,136-87c3,4,6,1,6-6s4-10,9-7c5,4,11,2,13-2c5-14,119-73,129-67c5,4,9,1,9-5s5-8,10-5c6,3,10,2,10-3s8-12,18-16
		c9-3,28-10,41-16c22-10,23-9,10,7c-8,10-18,21-22,24c-5,3-8,9-8,13c2,17-1,24-19,44c-12,12-19,22-16,22c2,0-15,39-40,88
		c-24,48-44,93-44,100c0,6-5,12-12,12c-6,0-9,3-5,6c3,3-1,25-10,47c-41,114-47,222-12,222c8,0,27-11,43-25s33-24,38-22c5,1,7-2,3-8
		c-3-5,0-12,7-15s67-58,134-123c66-64,141-135,167-157c27-22,63-53,81-70c48-42,143-115,196-150c25-17,47-33,48-38c2-4,8-5,13-1
		c5,3,9,1,9-4c0-9,50-37,63-34c4,1,7-2,7-7c0-11,114-71,134-71c8,0,16-4,18-9s10-11,18-13s18-7,21-11c3-5,12-9,20-10c8-2,20-6,27-10
		c6-5,17-5,22-2c6,3,10,2,10-3s33-19,73-30c65-19,92-26,192-47c17-4,91-8,167-9c122-3,175,1,258,19c14,2,36,7,50,10
		c14,2,46,10,72,17l47,12l-79,53c-44,29-84,53-90,53s-8,5-5,10c3,6,2,10-3,10c-6,0-32,20-60,45c-27,24-53,41-58,37s-6-3-2,2
		s-13,29-37,53c-25,25-45,48-45,51c0,4-14,22-31,40c-16,17-27,32-23,32s0,8-8,18c-19,21-50,102-40,102c16,0,134-62,194-102
		c79-53,78-52,141-117c77-80,81-84,96-114c8-15,18-27,23-27c4,0,8-6,8-14s8-22,18-32c9-10,16-20,16-23c-2-6,4-21,27-76
		c6-16,13-34,15-40c1-5,9-36,18-68c8-32,18-75,21-95c3-21,7-49,10-62c3-14,8-41,11-60c4-19,8-44,10-55c22-113,22-361,1-587
		c-2-19-46-80-109-151c-21-23-40-50-43-59c-4-10-10-18-14-18s-25-24-46-53c-22-28-42-54-45-57s-25-32-50-65s-47-62-50-65
		c-16-16-90-109-90-113s-10-17-22-30c-31-32-142-176-147-190c-2-7-13-18-23-25s-16-18-13-23c4-5,2-9-2-9c-9,0-114-136-113-145
		c1-4-9-15-22-25c-13-11-20-19-15-20c4,0-1-8-10-18c-10-10-25-29-33-42c-8-12-21-28-27-36c-7-7-13-17-13-22c0-6-3-12-8-14
		c-8-3-92-124-92-132c0-3-10-20-23-39l-23-33l-74,4c-118,8-410,7-463-1c-90-14-109-27-200-139c-21-25-39-55-42-66c-2-11-6-36-9-57
		c-4-20-9-41-12-46s-7-22-10-37s-12-45-20-67c-9-22-15-41-15-42c1-2,0-5,0-8c-5-20-9-30-45-112c-12-28-20-54-16-57c3-3,0-6-6-6
		c-10,0-28-38-24-52c1-5-3-8-8-8c-6,0-10-7-10-15s-5-15-11-15s-8-7-5-16c3-8,2-12-3-9c-8,4-28-34-22-43c1-1-10-15-24-30
		s-25-30-25-34c0-3-12-20-26-37s-24-31-21-31c7,0-44-59-117-137c-47-50-55-64-42-69c9-3,14-9,11-13c-2-4,10-23,27-42s31-36,31-39
		s23-36,51-75c29-38,70-96,91-127c22-31,44-54,49-51c5,4,6,2,3-4c-4-5,3-20,14-32c25-26,25-27-58-199c-35-73-65-139-66-145
		c-1-7-5-14-8-17c-4-3-18-30-32-60s-41-89-60-130s-58-127-87-190s-68-149-87-190s-35-79-36-85c-1-5-4-12-7-15c-9-9-40-71-40-80
		c0-5-18-48-40-95s-40-88-40-89c0-2-10-25-22-52s-23-51-23-54c-3-8-35-82-53-120c-9-19-16-37-17-40c0-3-4-11-8-17c-5-7-5-13,0-13
		c4,0,3-4-2-8c-6-4-21-34-34-67s-37-89-53-125s-30-73-31-82c-1-10-4-18-7-18c-7,0-45-102-42-112c1-5-3-8-9-8s-9-7-5-15
		c3-8,2-15-2-15c-8,0-50-112-44-118c1-1-4-10-13-18c-8-9-16-22-16-30c-2-23-4-28-19-54c-7-14-13-26-12-27c1-2-1-8-3-15
		c-57-156-143-411-150-447c-2-9-8-29-14-45c-7-16-9-31-6-34c2-3,1-10-3-16c-5-6-14-38-21-71s-16-69-20-80c-15-40-19-209-7-241
		c5-13,9-14,21-4c8,7,15,9,15,5s7-2,15,5s15,10,15,6s17,2,38,13c43,22,322,111,392,125c14,3,43,10,65,16c22,7,50,11,62,11s25,4,28,9
		c4,6,10,8,15,5s30-1,57,5c174,35,518,52,698,35c33-4,80-8,105-10c52-4,150-17,228-31c12-2,32-6,45-8c62-11,112-22,155-35
		c17-5,32-8,32-6c0,3,12,0,28-6c15-6,36-13,47-15s29-6,40-8s81-25,155-50c74-26,144-49,154-51c11-3,24-9,29-14s16-7,23-4
		c8,3,14,0,14-6s3-10,8-9c7,1,17-3,131-51c38-16,72-27,75-24c3,4,6,2,6-4s23-19,50-29c28-10,50-22,50-27s7-7,15-3c8,3,15,1,15-4
		c0-6,7-10,15-10s15-5,15-11s7-9,15-5c8,3,15,1,15-4c0-6,7-10,15-10s15-4,15-9s13-12,29-16c16-3,35-13,41-21c7-7,16-11,21-8s9,0,9-6
		s5-8,10-5s10,1,10-5s4-9,9-6c5,4,11,2,13-2c1-4,41-29,88-55c99-55,162-91,196-113c13-9,24-12,24-8c0,5,5,1,11-8c5-10,16-18,24-18
		c7,0,15-3,17-8c2-4,39-30,83-57s81-53,83-57s8-8,13-8s44-25,88-55c43-30,81-51,85-48c3,4,6,1,6-5c0-11,78-69,94-70c5,0,12-4,15-10
		c8-12,159-122,168-123c5,0,12-7,16-15s12-14,17-14s26-15,46-34c21-19,42-33,46-30s8,1,8-3c0-5,24-27,53-48c28-22,66-51,83-65
		s41-33,53-43c12-9,24-17,27-17c4,0,15-10,25-22c11-11,19-18,19-15c0,4,15-7,33-23c17-16,61-53,97-82s102-83,146-120
		c45-37,85-65,88-62c3,2,4,1,1-2c-5-7,11-23,65-64c18-14,38-29,44-35c94-85,168-147,162-135c-4,8,0,6,8-4c9-11,16-23,16-28
		c0-4,6-8,14-8s16-3,18-7c8-20,156-142,163-135c5,4,6,3,3-3c-3-5,0-16,8-23s14-11,14-9s28-23,62-54c33-32,66-55,71-52c6,3,7,1,4-4
		c-4-6,4-18,18-27c13-9,32-24,42-35c10-10,63-58,118-107c55-48,105-93,111-98c61-60,160-140,168-138c6,2,8,0,4-4s3-16,16-28
		c55-50,81-72,86-71c3,0,23-19,44-42c21-24,45-43,54-43c8,0,13-3,10-6c-4-3,12-22,35-42c95-85,110-98,141-127c17-16,63-58,101-91
		c39-34,82-73,96-85c14-13,59-53,99-89c41-36,82-73,92-83c10-9,21-17,24-17s15-11,26-25s23-23,28-20s12,0,16-6c5-8,3-9-7-4
		c-12,8-12,6,0-8c7-9,17-17,21-17s36-27,71-59c35-33,65-58,67-57c1,2,23-17,47-42c25-25,45-43,45-40c0,5,41-32,118-105
		c12-12,22-19,22-15c0,3,17-11,38-31c67-64,120-111,126-111c3,0,16-10,29-22c61-58,86-78,97-78c6,0,9-4,6-9c-6-9,22-26,37-23
		c4,1,7-5,7-15c0-9,2-14,5-11s18-6,33-21c41-39,92-82,92-77c0,2,26-20,58-50c31-29,63-54,70-54c6,0,12-4,12-10c0-5,19-22,43-38
		c23-17,53-40,67-52c46-39,65-55,110-90c25-19,48-39,52-45c4-5,8-6,8-2s11-3,24-17c13-15,27-26,32-26s16-9,24-19c7-11,17-18,21-16
		c4,3,9-2,13-10c3-8,12-15,21-15c8,0,15-3,15-8c0-4,33-32,73-62c39-30,74-58,75-62c2-5,10-8,17-8s15-3,17-8c4-9,84-72,92-72
		c3,0,14-8,25-18c31-28,84-67,88-64c3,2,13-6,22-17c10-12,21-21,25-21c3,0,16-9,28-20c13-10,27-19,32-19s12-3,15-8
		c10-16,119-93,131-93c5,0,10-4,10-8s37-32,83-62c45-29,99-67,120-83c20-16,37-26,37-22c0,3,12-6,27-20s33-25,40-25s13-4,13-10
		c0-5,4-10,9-10c4,0,48-26,96-57c48-32,90-57,94-56c3,1,10-5,14-13s14-14,21-14s21-9,31-20s22-20,27-20s33-16,63-35s55-32,55-29
		c0,2,10-4,22-15c11-11,25-18,30-15c4,3,8,1,8-5s19-19,43-30c23-12,67-37,97-56s61-34,68-35c6,0,12-5,12-11c0-5,5-7,10-4
		c6,3,10,3,10-2c0-4,19-17,43-28c23-11,44-22,47-25c13-13,70-40,70-33c0,4,4,3,8-3c11-17,119-74,126-67c3,4,6,1,6-5
		c0-10,40-28,49-23c2,2,7-2,10-7c7-11,234-122,250-122c6,0,11-5,11-11s7-9,15-5c8,3,15,1,15-4c0-6,5-10,10-10c6,0,42-16,81-35
		s75-33,79-30c5,3,10,2,12-2c3-7,42-26,143-69c65-27,241-96,250-98c6-1,20-7,32-14s26-12,32-12c5,0,22-5,38-12c15-6,30-12,33-13
		c3,0,23-7,45-14c57-18,59-19,66-17c3,0,12-4,20-10c12-10,56-25,84-29c6-1,24-8,40-14c17-7,40-14,52-14c13-1,23-6,23-11s3-6,6-3
		c4,3,14,2,24-3c9-5,52-18,96-30c109-30,214-58,217-58c1-1,9-3,17-6c8-2,38-9,65-15c28-7,61-14,75-17c14-4,34-7,45-9
		c11-1,38-7,60-13s51-13,65-16c14-2,36-7,50-10s41-8,60-11c19-2,47-7,63-10c62-12,84-15,127-21c25-3,52-7,60-9s35-7,60-10
		s63-8,85-11s60-7,85-9s68-7,95-10c179-21,378-29,685-28c299,1,395,4,555,18c166,15,280,28,365,40c14,2,45,7,70,10c25,4,54,8,65,10
		s43,6,70,10c28,3,57,9,65,12s31,7,50,10c19,2,36,6,39,9c6,5,4,106-4,239c-3,55-8,127-9,160c-6,95-17,218-21,245c-2,14-7,53-10,87
		s-7,79-10,100s-7,58-10,83c-2,25-9,79-15,120c-7,41-13,86-15,100c-10,78-16,118-20,140c-5,27-11,62-20,125c-3,23-8,52-11,65
		c-3,14-7,38-9,53s-9,54-15,85s-13,68-16,82s-12,59-20,100c-9,41-18,86-20,100s-9,46-15,71c-6,26-12,55-14,65c-2,11-4,19-5,19
		s-3,9-5,20c-6,34-15,77-37,165c-11,47-21,91-21,98c0,6-4,12-8,12c-5,0-6,7-3,15s2,20-2,27c-5,7-9,15-9,18c-5,34-100,389-112,420
		c-3,8-8,24-10,35c-6,28-9,38-16,55c-4,8-18,53-31,100c-14,47-37,121-51,165c-28,84-31,94-35,110c-1,6-6,18-12,28c-5,10-12,31-14,45
		c-3,15-8,29-12,32s-8,12-9,20c-2,19-40,129-52,150c-5,9-12,30-16,48c-3,18-11,32-16,32c-6,0-8,4-5,9s-8,41-24,81
		c-17,40-30,76-30,80s-8,25-17,46c-9,22-17,41-18,44c-3,10-19,46-38,90c-12,25-22,50-23,56c-3,15-149,354-196,454
		c-100,211-131,275-140,281c-5,3-9,9-8,13c2,12-34,86-43,86c-4,0-5,5-1,11c3,6,3,14-2,18c-5,3-20,29-34,56c-14,28-29,53-35,57
		c-5,4-7,8-3,8s-1,15-12,33c-10,17-27,48-37,67c-9,19-21,38-26,41s-8,9-8,13c2,10-31,70-43,78c-6,5-7,8-1,8s6,3-1,8
		c-5,4-20,27-32,52c-24,48-95,169-109,185c-5,6-15,24-23,40c-28,56-93,155-102,155c-5,0-7,4-3,9c3,5-2,16-10,25c-9,8-15,17-15,18
		c3,9-13,37-19,33c-4-2-8,1-8,8c0,17-33,67-45,67c-5,0-7,4-3,9c3,5-2,16-10,24c-8,9-15,20-15,26s-4,11-10,11c-5,0-10,7-10,15
		s-4,15-9,15s-14,14-21,30c-7,17-16,30-21,30s-9,7-9,15s-4,15-10,15c-5,0-10,5-10,11c0,11-50,82-62,87c-5,2-8,8-8,13
		c0,12-77,119-97,136c-8,6-14,15-14,20c0,12-151,213-161,213c-4,0-7,3-6,8c4,11-28,53-35,45c-4-3-7,1-7,10c0,8-6,22-13,29
		s-28,33-47,58s-42,52-52,61s-18,20-18,25s-8,17-17,26c-10,9-23,23-28,30c-62,77-105,127-105,121c0-4-6,2-13,13
		c-23,41-102,133-114,133c-6,1-15,6-19,13c-5,7-2,8,7,3c12-7-12,22-73,86c-9,9-19,14-23,11c-4-4-5-2-3,4s-24,40-58,76l-61,65l-2,139
		c-1,76-4,239-5,362l-2,223l-28,14c-16,8-35,15-42,15c-8,0-14,4-14,8c0,5-26,19-57,32c-32,13-61,28-65,34s-8,8-8,3c0-4-11,0-25,9
		s-25,12-25,8c0-5-4-4-8,2c-9,14-162,89-179,87c-7,0-13,3-13,7c0,8-57,34-63,29c-2-2-11,4-21,14c-10,9-26,17-36,17s-20,4-22,9
		c-1,4-39,25-83,45s-106,50-137,66c-32,17-58,27-58,22c0-4-4-2-8,3c-4,6-34,24-67,39c-33,16-90,44-127,62c-38,18-68,30-68,26
		s-4-2-8,4c-9,13-71,44-89,44c-7,0-13,5-13,11c0,5-4,7-10,4c-5-3-10-1-10,6s-3,9-6,6c-4-4-19,2-33,12c-15,11-35,21-46,23
		c-11,1-22,6-25,9c-5,7-215,109-227,110c-19,3-47,30-48,46c-1,10-5,38-9,63s-9,61-12,80c-2,20-6,45-8,55c-2,11-7,49-10,85
		c-4,36-9,81-11,100c-43,346-47,894-11,1270c7,63,9,83,21,160c3,20,7,54,10,75c2,22,4,40,5,40c2,0,6,21,14,65c3,19,10,58,16,85
		c6,28,13,63,16,78c3,16,12,49,19,75c8,25,12,49,9,54c-3,4-1,8,5,8c5,0,8,9,6,20s-1,20,3,20s16,30,26,68c11,37,23,74,27,82
		c3,8,21,53,39,100s45,111,61,143c15,31,25,57,21,57s-2,4,4,8c12,7,38,48,75,120c13,23,26,42,31,42c4,0,8,5,8,11c0,9,59,91,115,157
		c35,41,165,171,165,164c0-4,4-2,8,4c10,15,110,84,122,84c5,0,10,5,10,11c0,5,5,7,10,4c6-3,10-3,10,2c0,4,27,19,60,33s60,28,60,32
		c0,5,3,7,8,6c15-4,82,24,82,34c0,6,3,9,6,5c6-5,44,6,109,33c17,7,37,14,45,15s56,16,105,33c82,28,247,79,285,88
		c58,14,106,28,110,33c3,3,14,7,25,9s51,13,90,24c38,11,80,22,94,25c14,2,28,7,31,11c5,8,23,13,56,16c11,2,26,6,32,10
		c7,4,20,9,29,11c57,13,109,29,113,34c3,3,14,7,25,9s44,12,73,22c28,11,52,16,52,12s4-2,8,3c4,6,45,23,92,39s90,32,95,36
		c6,3,29,12,53,20c23,7,42,17,42,22s5,6,10,3c6-4,22,0,35,9s31,16,40,16c8,0,15,5,15,12c0,6,3,9,6,6c7-8,126,50,136,66c4,6,8,8,8,4
		c0-12,120,54,120,65c0,6,3,8,6,4c7-6,93,48,106,67c4,6,8,7,8,3c0-5,13,2,28,15c16,12,44,34,62,48c19,14,52,42,73,63
		c22,20,44,37,49,37s6,5,3,10c-3,6,1,10,9,10c9,0,16,4,16,9s11,19,25,32c13,13,25,27,25,32c0,4,8,16,18,26c32,37,42,50,42,61
		c0,5,4,10,9,10c12,0,92,161,85,171c-3,5-1,9,3,9c14,0,44,95,59,185c10,59,13,321,4,363c-5,21-10,53-13,72c-5,40-16,88-24,110
		c-3,8-8,24-10,35c-6,35-65,209-75,221c-5,7-10,20-13,30c-4,23-46,117-54,124c-3,3-6,10-6,15c0,14-78,169-87,173c-5,2-8,10-8,18
		s-4,14-8,14c-5,0-9,6-9,13c0,6-19,42-41,80c-23,37-42,72-42,77s-7,13-16,18s-15,11-14,13c1,4-4,23-16,54c-4,11-8,23-9,28
		c-2,4-4,9-5,12c-7,14-20,94-21,135c-2,45,8,110,26,159c7,22,11,42,8,45c-4,3-1,6,5,6c9,0,28,40,23,48c-1,1,4,9,11,17
		c30,33,38,45,38,55c0,5,5,10,12,10c6,0,9,3,6,6c-4,3,7,18,23,33c16,16,29,33,29,39s9,13,19,17c11,3,23,15,26,26c4,10,11,17,16,14
		c5-4,13,4,18,17c6,13,10,20,10,16c1-7,33,17,67,50c7,6,15,12,19,12s13,6,20,13c33,29,45,37,53,37c5,0,15,7,22,15c7,9,28,23,46,31
		c19,9,34,21,34,26s5,6,10,3c6-3,10-1,10,4c0,6,4,10,8,8c4-1,29,9,55,23l47,25l-6,55c-10,105-15,134-28,185c-1,6-6,26-10,45
		c-16,73-64,188-107,258c-12,20-9,26,34,70c26,26,44,51,41,55c-4,4-2,7,5,7c6,0,23,12,36,27c44,50,124,170,118,177c-3,3-2,6,4,6
		c12,0,97,179,89,187c-3,4-2,11,3,17c34,41,34,336,0,336c-5,0-6,6-3,14c3,7-2,21-11,29c-9,9-16,20-15,24c0,18-12,43-21,43
		c-5,0-9,5-9,11c0,18-37,59-46,51c-5-4-6-3-2,2c4,4-4,25-16,45c-29,46-71,133-68,144c1,4-3,7-9,7c-5,0-8,4-5,9c4,5,1,22-5,38
		c-15,36-20,210-7,243c5,14,11,33,13,43c6,29,57,131,69,139c6,5,7,8,1,8s-6,3,0,8c6,4,26,27,45,52c19,24,46,57,60,72s30,33,36,41
		c7,7,25,24,40,36c16,12,23,19,15,15c-9-5-12-3-7,4c4,7,13,12,20,12s21,9,32,21c10,12,56,50,102,86c45,35,82,69,82,74c0,6,4,8,8,5
		c5-3,29,15,55,39s47,41,47,38s20,14,44,38c25,23,43,46,40,51c-3,4,1,8,8,8c20,0,66,77,85,140c17,54,26,186,15,205c-3,5-7,22-9,37
		c-7,69-103,298-124,298c-5,0-8,4-6,9c3,12-45,91-56,91c-4,0-6,4-3,9s-7,23-23,40s-27,31-25,31c5,0-45,69-56,80c-3,3-16,19-28,37
		c-25,35-74,93-114,135c-15,16-27,31-28,33c0,6-37,49-67,80c-11,12-42,45-67,74c-25,28-46,48-47,44c0-4-4,2-10,15c-5,13-13,20-19,17
		c-6-4-9-2-8,4c4,16-463,471-476,464c-6-3-8-3-4,2c4,4-9,22-29,39s-49,46-66,63c-16,18-34,30-40,26c-6-3-7-1-3,6c4,6,0,14-10,18
		s-31,22-47,40s-34,30-41,26c-6-3-8-3-4,2c4,4-2,17-15,27c-12,11-51,45-87,76c-35,31-68,56-73,54c-5-1-6,1-3,6c2,4-7,17-21,28
		c-15,10-51,42-81,69c-30,28-63,55-73,61c-11,5-17,13-14,16s2,16-3,28c-11,30,3,103,29,155c23,43,90,115,108,115c6,0,11,4,11,8
		c0,5,23,19,50,32c28,13,50,27,50,32s6,8,13,7c6-1,23,2,37,8s43,16,65,24c22,7,42,15,44,16c7,5-43,38-51,35c-5-1-8,2-8,6
		s-15,13-32,20c-71,25-162,35-305,36c-107,1-119,4-113,31c1,5,3,21,5,35s6,39,9,55c3,17,8,55,11,85s8,73,11,95c18,162,21,195,30,350
		c8,149,9,414,0,525c-14,189-22,275-26,275c-1,0-3,14-4,30c-6,58-18,140-23,148c-2,4-6,20-8,35c-10,75-55,271-75,322
		c-5,14-12,38-14,54c-3,16-9,32-13,35s-9,15-11,26s-7,31-12,45c-9,26-19,57-21,65c0,2-23,57-49,122l-48,118l23,31c13,17,21,34,18,38
		c-4,3-2,6,4,6c12,0,133,191,133,209c0,6,5,11,12,11c6,0,8,3,5,7c-4,3-3,11,3,18c11,13,110,207,110,216c0,4,10,28,22,55s23,51,23,54
		c1,3,4,12,8,20c13,34,42,115,43,120c0,3,7,25,14,50c8,25,15,50,16,55c0,6,3,17,7,25c5,13,12,39,24,90c4,18,8,40,27,143
		c37,193,39,448,5,604c-5,26-10,55-11,63c0,8-7,40-15,70c-30,109-35,176-19,228c13,41,79,1,141-88c22-30,42-57,45-60s6-9,7-15
		c1-5,11-32,24-60c12-27,23-54,24-60c2-5,10-36,19-67c33-110,44-205,42-360c0-71,2-128,7-128c4,0,8,9,8,20c2,24,1,22,21,90
		c9,30,19,71,22,90s8,48,11,64c3,15,8,47,10,70c3,22,8,61,12,86c3,25,7,133,7,240c1,170-2,234-19,400c-5,50-33,206-46,254
		c-11,40-14,53-24,99c-20,92-131,399-146,405c-4,2-6,9-3,16s-2,19-10,26c-9,7-13,16-10,21s0,9-6,9s-9,4-5,9c3,5,0,15-7,23
		c-7,7-14,20-16,28s-8,18-14,21c-5,3-10,10-10,15c1,17-30,74-40,74c-5,0-7,4-4,8c3,5-5,24-17,43c-35,55-46,72-61,100
		c-37,65-114,168-121,161c-5-4-5-2-2,4c6,11-17,45-63,93c-14,15-26,30-27,34c-5,17-41,56-47,50c-3-3-6,0-6,8c0,22-260,290-274,282
		c-6-3-8-3-4,2c4,4-7,19-23,34c-17,14-50,44-73,65c-22,22-77,67-121,100s-84,66-88,73s-13,13-18,13c-6,0-31,16-55,36s-44,32-44,28
		c0-5-4-4-8,1c-14,20-80,64-86,58c-3-4-6-2-6,4s-44,37-97,69c-54,32-109,66-122,76s-27,15-32,12s-9,0-9,5c0,6-7,11-15,11s-15,3-15,8
		c0,4-10,12-23,18c-12,5-61,31-109,57c-49,25-88,43-88,39s-4-2-8,4c-8,13-141,77-159,77c-7,0-13,4-13,8c0,8-74,35-76,28
		c0-2-8,4-18,14c-10,9-22,15-27,12c-5-4-9-1-9,4c0,6-4,11-9,11s-31,9-57,20l-48,21l21,20c44,45,171,38,353-18c110-34,110-34,107-15
		c-4,26-17,43-28,37c-5-4-9-2-9,3c0,11-210,168-221,164c-5-1-9,2-9,7c0,9-102,79-122,83c-7,2-15,6-18,9c-7,9-94,52-99,50
		c-2-2-7,1-10,6c-5,7-111,55-131,59c-3,0-18,6-34,13c-16,6-36,13-45,14s-20,5-26,9c-11,6-72,21-95,23c-8,1-25,4-36,8
		c-12,4-35,9-50,12c-59,7-121,14-179,20c-134,13-216,24-410,56c-165,28-177,30-200,34c-11,3-35,7-54,9c-18,3-40,8-50,10
		c-9,3-29,8-46,10c-16,3-61,13-100,21c-38,9-79,17-90,19c-16,2-69,14-95,21c-3,1-23,5-45,9c-22,5-78,17-125,28s-96,22-110,24
		c-14,3-72,16-130,30s-116,27-130,29c-14,3-43,9-65,16c-22,6-51,12-65,14s-25,4-25,5s-7,3-15,5c-8,1-44,10-80,19s-78,18-95,21
		c-16,2-57,12-90,21s-67,17-75,18s-26,5-40,9s-36,9-50,11s-56,12-95,21c-38,10-79,19-90,20s-27,5-35,8c-15,6-209,48-245,53
		c-11,1-20,3-20,4s-7,3-15,5c-8,1-83,17-167,34c-83,18-162,34-175,35c-13,2-30,6-38,9s-55,13-105,21c-49,9-101,18-115,21
		c-26,5-128,23-168,30c-12,2-30,6-40,9c-9,3-37,8-62,11c-42,4-65,8-130,20c-14,3-43,7-65,10c-22,4-65,10-95,15c-30,6-75,12-100,15
		s-56,7-70,10s-43,7-65,10c-105,13-142,17-165,20c-14,1-50,6-80,10s-68,8-85,10c-51,4-178,16-225,21c-96,9-290,23-430,30
		C17539,32881,16961,32888,16957,32884z M24851,27308c5,1,8-1,7-5c-1-5,9-28,24-53c36-63,62-140,75-225c13-86,4-389-12-415
		c-2-3-6-25-10-48c-3-24-10-53-14-65c-7-19-10-16-30,27c-11,27-21,52-21,57s-4,9-10,9c-5,0-7,6-4,13c3,8-2,20-11,27
		c-8,7-15,19-15,27s-5,24-12,36s-13,27-13,32c-3,22-30,75-38,75c-4,0-6,4-2,9c3,5-3,31-14,58c-10,27-20,62-22,78c-2,17-6,35-10,40
		c-8,12-4,159,5,199c4,15,18,50,32,77c13,27,22,49,19,49s3,8,13,19c17,18,17,18,36-3C24834,27315,24847,27306,24851,27308z
		 M18693,12115c21-2,75-9,120-15c45-5,91-12,102-14s61-9,110-16c50-6,101-14,115-16c14-3,75-13,135-24c61-11,119-21,130-23
		c11-3,38-8,60-12s49-9,60-11c16-3,212-43,285-59c8-2,53-13,100-25c98-25,129-32,150-34c9-1,20-4,25-8c10-5,62-21,80-23
		c6-1,18-5,27-10c10-4,29-8,43-9c14,0,25-4,25-7s26-12,58-19c31-7,61-15,66-18c7-4,278-98,331-116c6-1,24-9,40-15c17-7,46-19,65-26
		s61-24,92-39c31-14,62-26,67-26c6,0,11-4,11-10c0-5,9-10,19-10c11,0,23-5,26-10c4-6,11-8,16-5c5,4,9,3,9-2c0-9,48-33,67-33
		c7,0,13-3,13-8c0-8,61-38,73-34c4,1,7-1,7-6c0-4,21-19,47-32c26-14,52-28,58-33c32-24,87-57,94-57c5,0,11-7,15-15c3-8,12-15,19-15
		c8,0,22-9,32-20s22-17,28-13c6,3,7,1,3-5c-4-7-2-12,3-12c6,0,11-5,11-11s-9-8-22-3c-13,4-31,8-40,8c-10,0-18,3-18,7s-12,9-27,12
		c-33,6-52,10-113,27c-25,7-49,13-55,15c-5,1-17,5-25,8c-15,6-94,28-116,33c-7,1-54,14-105,29c-52,15-101,29-109,30s-46,11-84,23
		c-37,12-78,24-90,27c-11,2-68,19-126,36s-109,32-115,33c-5,1-30,8-55,15s-45,12-45,12c0-1-27,8-60,19s-60,20-60,20c0-1-7,1-15,3
		c-49,15-131,39-142,41c-7,2-20,6-28,9c-15,5-63,17-77,18c-5,0-12,4-18,9c-5,4-26,11-45,16c-19,4-37,8-40,9s-51,16-108,34
		s-109,34-115,35c-7,2-19,6-27,9c-41,15-121,38-139,40c-12,1-21,4-21,8c0,6-44,21-75,25c-5,0-17,4-25,7c-28,11-142,49-154,52
		c-6,1-18,5-26,8c-23,9-113,38-130,42c-8,2-38,13-67,23c-28,11-54,17-57,14s-6,1-6,8s-3,11-6,8s-33,5-66,18c-34,13-64,22-66,19
		c-3-3-10-1-16,4c-9,8-127,54-188,75c-10,3-18,9-18,14C18590,12127,18609,12126,18693,12115z M17675,9790c19-11,35-16,35-12s4,2,8-4
		s19-17,34-25c16-8,63-32,105-54c43-21,80-42,83-45c8-9,64-34,73-32c4,1,7-2,7-7s10-13,23-16c12-4,45-21,72-38c28-16,56-30,63-30
		c6,0,12-4,12-8s10-11,22-14c11-4,43-20,70-36c26-16,48-25,48-21s4,2,8-3c4-6,21-17,37-25c17-8,43-23,59-34c20-13,27-15,22-5
		c-6,11-5,11,6-1c12-14,56-38,228-127c30-15,58-32,61-37c4-5,11-6,17-2c5,3,12-1,16-9c3-8,14-15,25-15s21-4,23-9c2-4,50-32,108-62
		c58-29,117-61,131-71c14-9,29-15,33-11c3,3,6,2,6-4c0-9,34-24,49-22c2,0,7-3,10-8c7-11,218-124,227-123c4,1,10-2,13-7
		c3-4,31-21,61-37c107-57,165-89,179-100c12-9,13-8,7,4c-7,13-6,13,6,0c7-8,36-26,63-40c28-14,52-28,53-32c2-5,12-8,23-8
		c10,0,19-3,19-7c0-5,25-19,55-33s55-28,55-31c0-6,31-17,47-17c3,0,9-4,12-9s26-19,51-32s69-36,98-52c28-16,52-26,52-22s4,3,8-3
		c11-17,98-64,106-57c3,4,6,1,6-6s4-10,9-7s11-1,15-9c3-8,15-15,26-15s20-3,20-8c0-4,20-16,45-27s45-24,45-29s3-7,6-3c4,3,13-1,21-9
		s19-12,24-9c5,4,9,1,9-4c0-6,4-11,10-11c5,0,32-14,61-30c28-17,56-32,62-33s18-8,25-15c8-7,18-10,23-7c5,4,9,1,9-4c0-6,7-11,15-11
		s15-4,15-10c0-5,6-10,13-10c6,0,23-9,37-20s33-20,43-20c9,0,17-3,17-8c0-4,15-13,33-21c17-8,49-25,69-38c20-12,43-24,50-25
		c7-2,19-9,26-16c8-7,17-10,22-7s10,1,12-3c3-9,57-40,168-98c30-16,57-31,60-34c3-4,39-23,80-44c91-47,133-69,140-76
		c3-3,32-19,65-35c33-17,62-33,65-37c7-9,63-32,73-30c4,1,7-2,7-8c0-5,20-19,44-30c25-11,48-25,51-30c4-6,11-8,16-5c5,4,9,3,9-2
		c0-4,15-15,33-22c17-8,48-25,67-37c19-13,41-24,49-26s23-11,33-21s23-15,28-12c6,4,10,1,10-5s5-8,10-5c6,3,10,1,10-4
		c0-6,18-18,40-27s40-19,40-23c0-3,25-17,55-31s55-28,55-32c0-5,7-8,15-8s15-5,15-11c0-5,4-8,9-5s14-1,21-9s16-12,21-9s9,1,9-5
		c0-11,39-27,55-22c5,1,7-1,3-5c-6-5,51-44,64-44c2,0,3,89,4,198c0,178,8,354,18,407c3,17,18,131,21,160c2,14,16,95,22,120
		c2,11,7,34,10,50c7,42,9,48,18,68c4,10,5,21,1,24c-3,3-2,11,4,17c5,7,11,25,14,41c3,17,21,76,40,133c19,56,32,102,28,102s-1,4,6,9
		c7,4,14,18,15,29c1,12,5,22,10,22s7,6,4,14s-1,16,4,18c6,2,11,11,12,20c2,9,8,22,15,30c6,8,13,24,15,36s7,25,11,29
		c11,11,39,76,38,86c-1,4,2,7,6,7c5,0,14,16,22,35s17,35,22,35c4,0,8,5,8,11s9,24,21,40c11,16,17,29,12,29c-4,0,0,5,10,11
		c9,6,15,14,12,19c-3,4,2,10,10,14c8,3,15,10,15,16s5,16,10,23c24,28,46,57,60,77c8,12,29,39,47,58c17,20,29,40,26,45c-2,4-1,6,4,5
		c4-2,8-1,8,2s16,20,35,39c19,18,34,37,33,42c-2,5,0,8,5,6c4-1,33,24,65,55s61,58,65,60s6,7,4,11c-1,5,2,6,7,3c5-4,21,8,36,26
		s24,27,19,19c-5-9,2-7,19,5c15,10,27,22,27,27c0,4,7,7,15,7c7,0,18,6,22,14c9,15,73,50,73,40c0-7-51-101-75-138c-10-14-15-26-11-26
		c3,0-2-9-11-19c-19-23-104-181-97-181c3,0-3-12-13-27c-23-33-93-180-93-194c0-5-5-9-12-9c-6,0-8-3-5-6c4-4,0-19-8-33
		c-13-22-36-75-40-91c0-3-11-27-23-54s-22-51-22-55c-1-3-9-24-20-46c-10-22-16-43-14-47c3-5,0-8-5-8c-6,0-11-6-11-14s-4-25-9-38
		s-9-26-10-31c0-4-8-21-16-37c-9-17-13-30-9-30s1-7-6-15s-10-15-6-15s0-13-9-29c-8-17-17-40-19-53c-3-13-5-23-6-23s-3-7-5-15
		s-10-36-19-61c-8-25-18-56-20-70c-3-13-5-25-7-26c-1-2-2-6-4-10c-1-5-5-20-9-34s-9-34-11-45c-2-10-4-19-5-19s-3-7-5-15
		c-7-38-26-127-31-150c-3-14-7-35-9-47s-6-34-9-50c-12-57-18-99-31-223c-12-102-14-145-14-295c0-139,2-180,13-285c5-48,10-78,32-194
		c3-16,7-33,10-38c9-14-20-9-121,24c-55,17-102,32-105,33c-3,0-11,4-17,8c-7,5-17,5-23,2c-5-3-10-1-10,5c0,7-7,10-15,6
		c-8-3-15,0-15,6s-3,8-6,5c-4-4-19,0-33,7c-27,15-278,115-297,119c-7,2-19,9-28,16c-8,7-20,10-26,6c-5-3-10-2-10,2c0,9-63,36-76,33
		c-4-1-10,2-13,7c-3,4-26,18-51,29c-159,76-226,105-234,104c-5-1-12,3-15,8c-7,12-123,67-133,64c-5-1-8,2-8,7c0,10-27,21-44,20
		c-5,0-12,3-15,8s-42,27-86,50c-44,22-96,50-117,61c-20,11-39,18-42,15c-3-4-6-1-6,5c0,7-7,12-15,12s-15,5-15,11s-6,9-14,6
		s-17,1-20,9c-3,9-10,13-15,10c-5-4-11-2-13,3c-1,5-10,11-18,13s-17,6-20,9s-36,23-75,44c-38,21-80,45-92,53c-13,8-23,10-23,6
		c0-5-4-4-8,2c-13,19-98,64-107,56c-4-4-5-2-1,5c6,11-29,30-46,25c-5-1-8,2-8,6c0,5-21,20-47,33c-27,13-53,28-59,34
		c-6,5-28,19-50,30c-21,11-40,23-42,28c-2,4-8,7-13,7c-6,0-26,11-46,25c-20,13-40,22-45,19c-4-3-8,0-8,6s-10,15-22,21
		c-24,11-29,13-124,72c-34,20-65,37-68,37c-4,0-16,9-28,20s-28,20-35,20s-13,5-13,10c0,6-5,10-11,10c-5,0-26,11-46,25
		c-20,13-40,22-45,19c-4-3-8-1-8,4c0,10-95,72-111,72c-5,0-9,5-9,10c0,6-7,10-15,10s-15,5-15,10c0,6-5,10-11,10s-34,15-62,33
		c-29,19-91,59-139,90c-48,32-90,57-94,57c-3,0-12,7-21,15c-8,8-19,12-25,9c-6-4-8-3-5,3c3,5-8,17-26,26c-41,22-198,123-278,180
		c-21,15-41,27-44,27c-9,0-69,44-73,53c-2,4-8,7-14,7s-32,16-59,36s-49,32-49,28s-6-1-12,7c-7,8-60,46-118,84s-111,75-118,82
		c-8,7-17,11-22,8s-10-1-12,4c-1,5-39,33-83,63s-104,71-132,91c-29,20-55,37-58,37s-15,9-27,20s-27,20-34,20c-6,0-15,7-18,16
		c-3,8-10,12-16,9c-5-3-10-2-10,3c0,9-61,51-75,52c-2,0-15,10-28,23c-13,12-68,51-121,87c-54,36-104,70-111,77s-15,9-19,6
		c-3-4-6-2-6,4s-27,28-60,49c-33,22-60,42-60,47c0,4-7,7-15,7s-15,5-15,10c0,6-4,10-10,10c-5,0-21,10-36,23c-14,12-28,21-31,19
		s-11,5-19,15c-7,10-14,14-14,10s-10,2-22,14c-13,11-39,32-60,45c-20,13-39,28-43,34c-3,6-11,8-16,5c-5-4-9,1-9,9
		C17620,9815,17632,9814,17675,9790z"/>
</g>
</svg>
