<?xml version="1.0" standalone="no"?>
<!DOCTYPE svg PUBLIC "-//W3C//DTD SVG 20010904//EN"
 "http://www.w3.org/TR/2001/REC-SVG-20010904/DTD/svg10.dtd">
<svg version="1.0" xmlns="http://www.w3.org/2000/svg"
 width="3733.000000pt" height="3733.000000pt" viewBox="0 0 3733.000000 3733.000000"
 preserveAspectRatio="xMidYMid meet">
<metadata>
Created by potrace 1.11, written by Peter Selinger 2001-2013
</metadata>
<g transform="translate(0.000000,3733.000000) scale(0.100000,-0.100000)"
fill="#000000" stroke="none">
<path d="M16957 32884 c-1 -1 -63 -5 -137 -9 -161 -8 -225 -12 -305 -20 -33
-3 -78 -8 -100 -10 -63 -6 -137 -14 -175 -20 -19 -2 -57 -7 -85 -10 -27 -4
-52 -8 -56 -11 -4 -2 -31 -7 -61 -10 -65 -8 -93 -12 -93 -14 0 -1 -11 -3 -25
-5 -39 -5 -104 -17 -110 -20 -3 -2 -25 -6 -50 -10 -25 -4 -49 -9 -55 -13 -5
-3 -16 -7 -25 -8 -52 -6 -262 -59 -400 -102 -47 -14 -94 -27 -105 -29 -10 -2
-23 -9 -27 -16 -4 -6 -8 -9 -8 -5 0 6 -72 -14 -115 -32 -11 -5 -51 -20 -90
-33 -68 -24 -97 -35 -162 -63 -17 -8 -36 -14 -42 -14 -6 0 -11 -4 -11 -8 0 -5
-6 -9 -12 -9 -7 0 -40 -12 -73 -28 -116 -53 -150 -68 -158 -69 -4 -1 -11 -7
-16 -14 -5 -8 -11 -13 -15 -12 -12 3 -66 -22 -66 -31 0 -5 -6 -6 -13 -3 -7 2
-23 -5 -35 -16 -12 -11 -22 -18 -22 -16 0 8 -134 -66 -138 -76 -2 -4 -9 -8
-16 -8 -8 0 -25 -9 -38 -20 -14 -10 -28 -17 -30 -14 -3 2 -11 -2 -18 -11 -7
-8 -19 -15 -26 -15 -8 0 -14 -4 -14 -9 0 -5 -13 -14 -29 -21 -16 -6 -38 -20
-50 -31 -12 -11 -21 -17 -21 -13 0 3 -23 -10 -50 -30 -28 -20 -55 -36 -60 -36
-6 0 -10 -4 -10 -8 0 -9 -46 -34 -70 -39 -8 -1 -26 -4 -40 -7 -14 -2 -43 -7
-65 -11 -22 -3 -49 -8 -60 -10 -34 -7 -147 -42 -202 -63 -29 -11 -54 -17 -57
-14 -4 3 -6 0 -6 -7 0 -7 -4 -10 -9 -6 -5 3 -12 1 -16 -5 -4 -6 -11 -8 -16 -5
-5 4 -9 1 -9 -4 0 -6 -4 -11 -10 -11 -15 0 -125 -53 -128 -62 -2 -5 -7 -6 -12
-3 -5 3 -14 -1 -22 -8 -7 -7 -17 -14 -21 -14 -19 -2 -127 -65 -127 -74 0 -6
-4 -8 -9 -5 -5 3 -21 -7 -37 -22 -15 -15 -24 -21 -20 -14 4 7 -8 2 -26 -11
-93 -64 -128 -92 -128 -99 0 -4 -3 -7 -7 -6 -14 5 -53 -28 -45 -37 4 -5 2 -5
-4 -2 -11 7 -55 -28 -146 -114 -26 -25 -48 -44 -48 -41 0 3 -22 -18 -50 -46
-27 -28 -50 -56 -50 -61 0 -5 -5 -13 -12 -17 -7 -5 -9 -2 -3 7 4 8 -20 -15
-53 -51 -33 -36 -58 -68 -56 -72 2 -4 -4 -9 -15 -13 -10 -3 -26 -20 -35 -38
-8 -18 -16 -28 -16 -22 0 5 -8 -2 -17 -15 -10 -14 -27 -35 -38 -48 -11 -13
-18 -24 -16 -25 2 -1 -13 -20 -32 -41 -20 -22 -34 -43 -31 -48 3 -4 1 -8 -4
-8 -6 0 -36 -39 -67 -87 -32 -49 -67 -101 -78 -117 -11 -16 -20 -35 -20 -42 0
-7 -6 -15 -14 -18 -7 -3 -13 -10 -13 -15 0 -6 -14 -34 -31 -63 -29 -47 -120
-227 -162 -318 -8 -19 -13 -38 -11 -42 3 -4 1 -8 -5 -8 -8 0 -19 -22 -26 -50
-1 -3 -7 -18 -15 -35 -34 -78 -42 -98 -45 -109 -1 -6 -7 -24 -14 -41 -6 -16
-15 -41 -20 -55 -5 -14 -12 -34 -17 -45 -9 -26 -15 -47 -16 -62 -1 -7 -5 -13
-9 -13 -4 0 -10 -17 -15 -37 -8 -41 -10 -49 -14 -60 -2 -5 -4 -12 -5 -18 -1
-5 -7 -23 -14 -39 -6 -16 -9 -31 -6 -34 2 -3 1 -10 -3 -16 -5 -6 -14 -29 -20
-51 -26 -92 -44 -161 -47 -180 -1 -11 -8 -42 -15 -70 -7 -27 -14 -59 -16 -70
-2 -11 -12 -63 -23 -115 -11 -52 -17 -98 -15 -102 3 -4 1 -8 -3 -8 -5 0 -9 -8
-10 -17 -2 -37 -14 -126 -17 -132 -3 -4 -7 -29 -10 -56 -5 -44 -12 -56 -60
-102 -30 -29 -51 -53 -48 -53 4 0 -6 -9 -23 -20 -16 -11 -28 -20 -25 -20 3 0
-28 -35 -70 -79 -90 -94 -130 -139 -130 -146 0 -3 -15 -20 -32 -39 -58 -58
-93 -100 -144 -166 -27 -36 -54 -72 -61 -80 -57 -72 -113 -151 -113 -160 0 -5
-5 -10 -12 -10 -6 0 -9 -3 -6 -6 3 -3 -7 -19 -23 -37 -16 -17 -29 -37 -29 -44
0 -7 -4 -13 -8 -13 -5 0 -19 -19 -33 -41 -13 -23 -31 -52 -39 -64 -58 -89 -78
-124 -73 -129 4 -3 2 -6 -4 -6 -13 0 -66 -87 -66 -107 0 -7 -4 -13 -8 -13 -5
0 -15 -13 -24 -30 -9 -16 -12 -30 -8 -30 4 0 -2 -7 -13 -15 -10 -8 -14 -15 -9
-15 6 0 5 -3 -1 -8 -13 -8 -59 -94 -56 -104 1 -5 -2 -8 -7 -8 -9 0 -27 -40
-22 -49 2 -2 -2 -7 -7 -10 -11 -7 -78 -144 -73 -150 1 -2 -1 -7 -6 -10 -13
-10 -33 -49 -33 -66 0 -8 -5 -15 -12 -15 -6 0 -9 -3 -5 -6 3 -3 -3 -22 -13
-42 -11 -19 -17 -39 -14 -44 3 -4 1 -8 -4 -8 -9 0 -68 -139 -64 -152 1 -5 -2
-8 -8 -8 -5 0 -10 -5 -10 -11 0 -6 -14 -45 -31 -87 -17 -43 -32 -81 -33 -87
-2 -5 -9 -23 -15 -40 -7 -16 -14 -37 -16 -45 -2 -8 -4 -16 -5 -17 -2 -2 -3 -6
-5 -10 -1 -5 -5 -16 -9 -25 -4 -9 -9 -23 -10 -32 -1 -8 -5 -19 -9 -22 -4 -4
-7 -18 -7 -30 0 -13 -5 -26 -11 -29 -6 -4 -8 -13 -5 -20 3 -8 2 -15 -2 -17 -7
-3 -76 -218 -86 -268 -3 -14 -10 -41 -16 -60 -6 -19 -14 -46 -17 -60 -7 -36
-9 -41 -21 -85 -10 -38 -19 -75 -27 -120 -2 -11 -8 -35 -14 -54 -6 -19 -9 -37
-6 -39 2 -3 0 -12 -4 -21 -5 -9 -12 -32 -15 -51 -3 -19 -8 -46 -11 -60 -3 -14
-16 -90 -30 -170 -14 -80 -27 -154 -29 -165 -2 -11 -7 -45 -10 -76 -4 -31 -8
-66 -11 -77 -2 -12 -6 -47 -10 -79 -3 -32 -8 -71 -10 -88 -4 -30 -10 -87 -20
-195 -16 -183 -28 -458 -28 -660 0 -157 11 -511 19 -585 2 -22 6 -76 9 -120 2
-44 7 -91 9 -105 5 -23 15 -116 21 -185 1 -17 6 -50 10 -75 4 -25 9 -56 10
-70 6 -54 34 -219 56 -327 5 -28 11 -61 12 -72 1 -12 4 -21 7 -21 3 0 6 -8 6
-17 1 -27 12 -81 28 -143 8 -30 12 -58 10 -62 -3 -5 -1 -8 5 -8 5 0 9 -8 9
-17 -1 -10 7 -45 17 -78 10 -33 19 -64 20 -70 2 -15 19 -77 51 -183 2 -7 4
-14 4 -17 0 -3 8 -24 16 -47 9 -24 17 -47 18 -53 1 -5 7 -23 13 -40 7 -16 28
-75 48 -130 21 -55 45 -118 55 -140 9 -22 28 -66 40 -97 13 -32 28 -58 32 -58
5 0 7 -4 3 -9 -3 -5 -1 -12 5 -16 5 -3 10 -14 10 -24 0 -10 7 -24 15 -31 8 -7
12 -16 9 -21 -3 -5 0 -9 5 -9 6 0 11 -7 11 -15 0 -8 5 -15 12 -15 6 0 9 -3 5
-6 -13 -14 175 -330 257 -431 8 -10 38 -47 67 -83 29 -36 66 -79 83 -97 17
-18 36 -38 41 -45 9 -12 80 -97 141 -168 82 -95 114 -135 114 -142 0 -4 7 -8
15 -8 8 0 14 -4 12 -9 -1 -5 15 -27 36 -49 20 -23 37 -44 37 -47 0 -3 15 -21
34 -40 19 -18 32 -36 29 -39 -3 -2 4 -11 16 -18 12 -7 21 -17 21 -23 0 -6 8
-18 18 -27 19 -18 21 -21 73 -90 20 -26 39 -45 43 -41 3 3 6 0 6 -8 0 -8 10
-25 23 -39 13 -14 42 -51 66 -82 24 -32 48 -58 54 -58 6 0 8 -3 4 -6 -3 -4 -1
-12 6 -19 7 -6 21 -24 32 -39 40 -56 91 -120 112 -143 12 -12 20 -23 17 -23
-5 0 10 -19 43 -56 12 -13 20 -24 17 -24 -4 0 7 -15 22 -34 48 -56 59 -71 61
-79 1 -5 12 -21 25 -36 13 -15 33 -41 43 -59 11 -18 22 -32 25 -32 3 0 14 -16
24 -35 10 -19 23 -32 28 -29 5 3 7 1 6 -4 -2 -5 13 -31 32 -58 19 -27 40 -56
45 -65 6 -9 35 -51 65 -94 30 -43 64 -93 74 -111 11 -18 24 -30 29 -27 6 3 7
1 4 -4 -4 -6 6 -23 21 -39 15 -15 21 -24 14 -20 -11 7 -11 4 0 -13 7 -12 16
-21 20 -21 5 0 8 -5 8 -11 0 -11 79 -131 93 -140 5 -3 8 -10 6 -14 -2 -8 17
-39 39 -61 7 -8 10 -14 5 -14 -4 0 0 -7 10 -14 10 -8 19 -18 19 -23 1 -16 60
-113 69 -113 5 0 8 -3 8 -7 -3 -18 2 -31 21 -51 12 -12 18 -22 15 -22 -4 0 2
-12 12 -28 10 -15 28 -44 38 -64 11 -21 23 -38 28 -38 4 0 5 -4 2 -10 -3 -5
-1 -10 6 -10 7 0 9 -3 6 -7 -4 -3 -2 -12 4 -19 10 -13 63 -110 125 -231 20
-40 40 -73 43 -73 4 0 8 -10 8 -22 1 -13 7 -24 13 -26 5 -2 10 -12 10 -23 0
-11 7 -22 15 -25 8 -4 13 -10 10 -14 -3 -4 15 -47 40 -95 25 -47 45 -93 45
-101 0 -8 5 -14 11 -14 5 0 7 -4 4 -10 -3 -5 -1 -10 6 -10 7 0 9 -3 6 -6 -4
-4 0 -19 8 -33 20 -36 90 -191 99 -218 4 -13 12 -23 17 -23 6 0 7 -5 3 -11 -3
-6 -3 -14 2 -18 5 -3 29 -48 54 -99 24 -50 48 -92 53 -92 4 0 6 -4 3 -9 -3 -5
5 -25 19 -45 14 -20 25 -40 25 -45 0 -4 8 -16 18 -27 9 -10 36 -45 60 -77 23
-31 47 -57 52 -57 6 0 10 -7 10 -16 0 -9 9 -18 20 -21 11 -3 20 -12 20 -19 0
-8 3 -14 8 -14 4 0 21 -13 38 -28 73 -63 84 -72 84 -64 0 4 4 2 8 -4 13 -19
129 -93 136 -87 3 4 6 1 6 -6 0 -7 4 -10 9 -7 5 4 11 2 13 -2 5 -14 119 -73
129 -67 5 4 9 1 9 -5 0 -6 5 -8 10 -5 6 3 10 2 10 -3 0 -5 8 -12 18 -16 9 -3
28 -10 41 -16 22 -10 23 -9 10 7 -8 10 -18 21 -22 24 -5 3 -8 9 -8 13 2 17 -1
24 -19 44 -12 12 -19 22 -16 22 2 0 -15 39 -40 88 -24 48 -44 93 -44 100 0 6
-5 12 -12 12 -6 0 -9 3 -5 6 3 3 -1 25 -10 47 -41 114 -47 222 -12 222 8 0 27
-11 43 -25 16 -14 33 -24 38 -22 5 1 7 -2 3 -8 -3 -5 0 -12 7 -15 7 -3 67 -58
134 -123 66 -64 141 -135 167 -157 27 -22 63 -53 81 -70 48 -42 143 -115 196
-150 25 -17 47 -33 48 -38 2 -4 8 -5 13 -1 5 3 9 1 9 -4 0 -9 50 -37 63 -34 4
1 7 -2 7 -7 0 -11 114 -71 134 -71 8 0 16 -4 18 -9 2 -5 10 -11 18 -13 8 -2
18 -7 21 -11 3 -5 12 -9 20 -10 8 -2 20 -6 27 -10 6 -5 17 -5 22 -2 6 3 10 2
10 -3 0 -5 33 -19 73 -30 65 -19 92 -26 192 -47 17 -4 91 -8 167 -9 122 -3
175 1 258 19 14 2 36 7 50 10 14 2 46 10 72 17 l47 12 -79 53 c-44 29 -84 53
-90 53 -6 0 -8 5 -5 10 3 6 2 10 -3 10 -6 0 -32 20 -60 45 -27 24 -53 41 -58
37 -5 -4 -6 -3 -2 2 4 5 -13 29 -37 53 -25 25 -45 48 -45 51 0 4 -14 22 -31
40 -16 17 -27 32 -23 32 4 0 0 8 -8 18 -19 21 -50 102 -40 102 16 0 134 -62
194 -102 79 -53 78 -52 141 -117 77 -80 81 -84 96 -114 8 -15 18 -27 23 -27 4
0 8 -6 8 -14 0 -8 8 -22 18 -32 9 -10 16 -20 16 -23 -2 -6 4 -21 27 -76 6 -16
13 -34 15 -40 1 -5 9 -36 18 -68 8 -32 18 -75 21 -95 3 -21 7 -49 10 -62 3
-14 8 -41 11 -60 4 -19 8 -44 10 -55 22 -113 22 -361 1 -587 -2 -19 -46 -80
-109 -151 -21 -23 -40 -50 -43 -59 -4 -10 -10 -18 -14 -18 -4 0 -25 -24 -46
-53 -22 -28 -42 -54 -45 -57 -3 -3 -25 -32 -50 -65 -25 -33 -47 -62 -50 -65
-16 -16 -90 -109 -90 -113 0 -4 -10 -17 -22 -30 -31 -32 -142 -176 -147 -190
-2 -7 -13 -18 -23 -25 -10 -7 -16 -18 -13 -23 4 -5 2 -9 -2 -9 -9 0 -114 -136
-113 -145 1 -4 -9 -15 -22 -25 -13 -11 -20 -19 -15 -20 4 0 -1 -8 -10 -18 -10
-10 -25 -29 -33 -42 -8 -12 -21 -28 -27 -36 -7 -7 -13 -17 -13 -22 0 -6 -3
-12 -8 -14 -8 -3 -92 -124 -92 -132 0 -3 -10 -20 -23 -39 l-23 -33 -74 4
c-118 8 -410 7 -463 -1 -90 -14 -109 -27 -200 -139 -21 -25 -39 -55 -42 -66
-2 -11 -6 -36 -9 -57 -4 -20 -9 -41 -12 -46 -3 -5 -7 -22 -10 -37 -3 -15 -12
-45 -20 -67 -9 -22 -15 -41 -15 -42 1 -2 0 -5 0 -8 -5 -20 -9 -30 -45 -112
-12 -28 -20 -54 -16 -57 3 -3 0 -6 -6 -6 -10 0 -28 -38 -24 -52 1 -5 -3 -8 -8
-8 -6 0 -10 -7 -10 -15 0 -8 -5 -15 -11 -15 -6 0 -8 -7 -5 -16 3 -8 2 -12 -3
-9 -8 4 -28 -34 -22 -43 1 -1 -10 -15 -24 -30 -14 -15 -25 -30 -25 -34 0 -3
-12 -20 -26 -37 -14 -17 -24 -31 -21 -31 7 0 -44 -59 -117 -137 -47 -50 -55
-64 -42 -69 9 -3 14 -9 11 -13 -2 -4 10 -23 27 -42 17 -19 31 -36 31 -39 0 -3
23 -36 51 -75 29 -38 70 -96 91 -127 22 -31 44 -54 49 -51 5 4 6 2 3 -4 -4 -5
3 -20 14 -32 25 -26 25 -27 -58 -199 -35 -73 -65 -139 -66 -145 -1 -7 -5 -14
-8 -17 -4 -3 -18 -30 -32 -60 -14 -30 -41 -89 -60 -130 -19 -41 -58 -127 -87
-190 -29 -63 -68 -149 -87 -190 -19 -41 -35 -79 -36 -85 -1 -5 -4 -12 -7 -15
-9 -9 -40 -71 -40 -80 0 -5 -18 -48 -40 -95 -22 -47 -40 -88 -40 -89 0 -2 -10
-25 -22 -52 -12 -27 -23 -51 -23 -54 -3 -8 -35 -82 -53 -120 -9 -19 -16 -37
-17 -40 0 -3 -4 -11 -8 -17 -5 -7 -5 -13 0 -13 4 0 3 -4 -2 -8 -6 -4 -21 -34
-34 -67 -13 -33 -37 -89 -53 -125 -16 -36 -30 -73 -31 -82 -1 -10 -4 -18 -7
-18 -7 0 -45 -102 -42 -112 1 -5 -3 -8 -9 -8 -6 0 -9 -7 -5 -15 3 -8 2 -15 -2
-15 -8 0 -50 -112 -44 -118 1 -1 -4 -10 -13 -18 -8 -9 -16 -22 -16 -30 -2 -23
-4 -28 -19 -54 -7 -14 -13 -26 -12 -27 1 -2 -1 -8 -3 -15 -57 -156 -143 -411
-150 -447 -2 -9 -8 -29 -14 -45 -7 -16 -9 -31 -6 -34 2 -3 1 -10 -3 -16 -5 -6
-14 -38 -21 -71 -7 -33 -16 -69 -20 -80 -15 -40 -19 -209 -7 -241 5 -13 9 -14
21 -4 8 7 15 9 15 5 0 -4 7 -2 15 5 8 7 15 10 15 6 0 -4 17 2 38 13 43 22 322
111 392 125 14 3 43 10 65 16 22 7 50 11 62 11 12 0 25 4 28 9 4 6 10 8 15 5
5 -3 30 -1 57 5 174 35 518 52 698 35 33 -4 80 -8 105 -10 52 -4 150 -17 228
-31 12 -2 32 -6 45 -8 62 -11 112 -22 155 -35 17 -5 32 -8 32 -6 0 3 12 0 28
-6 15 -6 36 -13 47 -15 11 -2 29 -6 40 -8 11 -2 81 -25 155 -50 74 -26 144
-49 154 -51 11 -3 24 -9 29 -14 5 -5 16 -7 23 -4 8 3 14 0 14 -6 0 -6 3 -10 8
-9 7 1 17 -3 131 -51 38 -16 72 -27 75 -24 3 4 6 2 6 -4 0 -6 23 -19 50 -29
28 -10 50 -22 50 -27 0 -5 7 -7 15 -3 8 3 15 1 15 -4 0 -6 7 -10 15 -10 8 0
15 -5 15 -11 0 -6 7 -9 15 -5 8 3 15 1 15 -4 0 -6 7 -10 15 -10 8 0 15 -4 15
-9 0 -5 13 -12 29 -16 16 -3 35 -13 41 -21 7 -7 16 -11 21 -8 5 3 9 0 9 -6 0
-6 5 -8 10 -5 5 3 10 1 10 -5 0 -6 4 -9 9 -6 5 4 11 2 13 -2 1 -4 41 -29 88
-55 99 -55 162 -91 196 -113 13 -9 24 -12 24 -8 0 5 5 1 11 -8 5 -10 16 -18
24 -18 7 0 15 -3 17 -8 2 -4 39 -30 83 -57 44 -27 81 -53 83 -57 2 -4 8 -8 13
-8 5 0 44 -25 88 -55 43 -30 81 -51 85 -48 3 4 6 1 6 -5 0 -11 78 -69 94 -70
5 0 12 -4 15 -10 8 -12 159 -122 168 -123 5 0 12 -7 16 -15 4 -8 12 -14 17
-14 5 0 26 -15 46 -34 21 -19 42 -33 46 -30 4 3 8 1 8 -3 0 -5 24 -27 53 -48
28 -22 66 -51 83 -65 17 -14 41 -33 53 -43 12 -9 24 -17 27 -17 4 0 15 -10 25
-22 11 -11 19 -18 19 -15 0 4 15 -7 33 -23 17 -16 61 -53 97 -82 36 -29 102
-83 146 -120 45 -37 85 -65 88 -62 3 2 4 1 1 -2 -5 -7 11 -23 65 -64 18 -14
38 -29 44 -35 94 -85 168 -147 162 -135 -4 8 0 6 8 -4 9 -11 16 -23 16 -28 0
-4 6 -8 14 -8 8 0 16 -3 18 -7 8 -20 156 -142 163 -135 5 4 6 3 3 -3 -3 -5 0
-16 8 -23 8 -7 14 -11 14 -9 0 2 28 -23 62 -54 33 -32 66 -55 71 -52 6 3 7 1
4 -4 -4 -6 4 -18 18 -27 13 -9 32 -24 42 -35 10 -10 63 -58 118 -107 55 -48
105 -93 111 -98 61 -60 160 -140 168 -138 6 2 8 0 4 -4 -4 -4 3 -16 16 -28 55
-50 81 -72 86 -71 3 0 23 -19 44 -42 21 -24 45 -43 54 -43 8 0 13 -3 10 -6 -4
-3 12 -22 35 -42 95 -85 110 -98 141 -127 17 -16 63 -58 101 -91 39 -34 82
-73 96 -85 14 -13 59 -53 99 -89 41 -36 82 -73 92 -83 10 -9 21 -17 24 -17 3
0 15 -11 26 -25 11 -14 23 -23 28 -20 5 3 12 0 16 -6 5 -8 3 -9 -7 -4 -12 8
-12 6 0 -8 7 -9 17 -17 21 -17 4 0 36 -27 71 -59 35 -33 65 -58 67 -57 1 2 23
-17 47 -42 25 -25 45 -43 45 -40 0 5 41 -32 118 -105 12 -12 22 -19 22 -15 0
3 17 -11 38 -31 67 -64 120 -111 126 -111 3 0 16 -10 29 -22 61 -58 86 -78 97
-78 6 0 9 -4 6 -9 -6 -9 22 -26 37 -23 4 1 7 -5 7 -15 0 -9 2 -14 5 -11 3 3
18 -6 33 -21 41 -39 92 -82 92 -77 0 2 26 -20 58 -50 31 -29 63 -54 70 -54 6
0 12 -4 12 -10 0 -5 19 -22 43 -38 23 -17 53 -40 67 -52 46 -39 65 -55 110
-90 25 -19 48 -39 52 -45 4 -5 8 -6 8 -2 0 4 11 -3 24 -17 13 -15 27 -26 32
-26 5 0 16 -9 24 -19 7 -11 17 -18 21 -16 4 3 9 -2 13 -10 3 -8 12 -15 21 -15
8 0 15 -3 15 -8 0 -4 33 -32 73 -62 39 -30 74 -58 75 -62 2 -5 10 -8 17 -8 7
0 15 -3 17 -8 4 -9 84 -72 92 -72 3 0 14 -8 25 -18 31 -28 84 -67 88 -64 3 2
13 -6 22 -17 10 -12 21 -21 25 -21 3 0 16 -9 28 -20 13 -10 27 -19 32 -19 5 0
12 -3 15 -8 10 -16 119 -93 131 -93 5 0 10 -4 10 -8 0 -4 37 -32 83 -62 45
-29 99 -67 120 -83 20 -16 37 -26 37 -22 0 3 12 -6 27 -20 15 -14 33 -25 40
-25 7 0 13 -4 13 -10 0 -5 4 -10 9 -10 4 0 48 -26 96 -57 48 -32 90 -57 94
-56 3 1 10 -5 14 -13 4 -8 14 -14 21 -14 7 0 21 -9 31 -20 10 -11 22 -20 27
-20 5 0 33 -16 63 -35 30 -19 55 -32 55 -29 0 2 10 -4 22 -15 11 -11 25 -18
30 -15 4 3 8 1 8 -5 0 -6 19 -19 43 -30 23 -12 67 -37 97 -56 30 -19 61 -34
68 -35 6 0 12 -5 12 -11 0 -5 5 -7 10 -4 6 3 10 3 10 -2 0 -4 19 -17 43 -28
23 -11 44 -22 47 -25 13 -13 70 -40 70 -33 0 4 4 3 8 -3 11 -17 119 -74 126
-67 3 4 6 1 6 -5 0 -10 40 -28 49 -23 2 2 7 -2 10 -7 7 -11 234 -122 250 -122
6 0 11 -5 11 -11 0 -6 7 -9 15 -5 8 3 15 1 15 -4 0 -6 5 -10 10 -10 6 0 42
-16 81 -35 39 -19 75 -33 79 -30 5 3 10 2 12 -2 3 -7 42 -26 143 -69 65 -27
241 -96 250 -98 6 -1 20 -7 32 -14 12 -7 26 -12 32 -12 5 0 22 -5 38 -12 15
-6 30 -12 33 -13 3 0 23 -7 45 -14 57 -18 59 -19 66 -17 3 0 12 -4 20 -10 12
-10 56 -25 84 -29 6 -1 24 -8 40 -14 17 -7 40 -14 52 -14 13 -1 23 -6 23 -11
0 -5 3 -6 6 -3 4 3 14 2 24 -3 9 -5 52 -18 96 -30 109 -30 214 -58 217 -58 1
-1 9 -3 17 -6 8 -2 38 -9 65 -15 28 -7 61 -14 75 -17 14 -4 34 -7 45 -9 11 -1
38 -7 60 -13 22 -6 51 -13 65 -16 14 -2 36 -7 50 -10 14 -3 41 -8 60 -11 19
-2 47 -7 63 -10 62 -12 84 -15 127 -21 25 -3 52 -7 60 -9 8 -2 35 -7 60 -10
25 -3 63 -8 85 -11 22 -3 60 -7 85 -9 25 -2 68 -7 95 -10 179 -21 378 -29 685
-28 299 1 395 4 555 18 166 15 280 28 365 40 14 2 45 7 70 10 25 4 54 8 65 10
11 2 43 6 70 10 28 3 57 9 65 12 8 3 31 7 50 10 19 2 36 6 39 9 6 5 4 106 -4
239 -3 55 -8 127 -9 160 -6 95 -17 218 -21 245 -2 14 -7 53 -10 87 -3 34 -7
79 -10 100 -3 21 -7 58 -10 83 -2 25 -9 79 -15 120 -7 41 -13 86 -15 100 -10
78 -16 118 -20 140 -5 27 -11 62 -20 125 -3 23 -8 52 -11 65 -3 14 -7 38 -9
53 -2 15 -9 54 -15 85 -6 31 -13 68 -16 82 -3 14 -12 59 -20 100 -9 41 -18 86
-20 100 -2 14 -9 46 -15 71 -6 26 -12 55 -14 65 -2 11 -4 19 -5 19 -1 0 -3 9
-5 20 -6 34 -15 77 -37 165 -11 47 -21 91 -21 98 0 6 -4 12 -8 12 -5 0 -6 7
-3 15 3 8 2 20 -2 27 -5 7 -9 15 -9 18 -5 34 -100 389 -112 420 -3 8 -8 24
-10 35 -6 28 -9 38 -16 55 -4 8 -18 53 -31 100 -14 47 -37 121 -51 165 -28 84
-31 94 -35 110 -1 6 -6 18 -12 28 -5 10 -12 31 -14 45 -3 15 -8 29 -12 32 -4
3 -8 12 -9 20 -2 19 -40 129 -52 150 -5 9 -12 30 -16 48 -3 18 -11 32 -16 32
-6 0 -8 4 -5 9 3 5 -8 41 -24 81 -17 40 -30 76 -30 80 0 4 -8 25 -17 46 -9 22
-17 41 -18 44 -3 10 -19 46 -38 90 -12 25 -22 50 -23 56 -3 15 -149 354 -196
454 -100 211 -131 275 -140 281 -5 3 -9 9 -8 13 2 12 -34 86 -43 86 -4 0 -5 5
-1 11 3 6 3 14 -2 18 -5 3 -20 29 -34 56 -14 28 -29 53 -35 57 -5 4 -7 8 -3 8
4 0 -1 15 -12 33 -10 17 -27 48 -37 67 -9 19 -21 38 -26 41 -5 3 -8 9 -8 13 2
10 -31 70 -43 78 -6 5 -7 8 -1 8 6 0 6 3 -1 8 -5 4 -20 27 -32 52 -24 48 -95
169 -109 185 -5 6 -15 24 -23 40 -28 56 -93 155 -102 155 -5 0 -7 4 -3 9 3 5
-2 16 -10 25 -9 8 -15 17 -15 18 3 9 -13 37 -19 33 -4 -2 -8 1 -8 8 0 17 -33
67 -45 67 -5 0 -7 4 -3 9 3 5 -2 16 -10 24 -8 9 -15 20 -15 26 0 6 -4 11 -10
11 -5 0 -10 7 -10 15 0 8 -4 15 -9 15 -5 0 -14 14 -21 30 -7 17 -16 30 -21 30
-5 0 -9 7 -9 15 0 8 -4 15 -10 15 -5 0 -10 5 -10 11 0 11 -50 82 -62 87 -5 2
-8 8 -8 13 0 12 -77 119 -97 136 -8 6 -14 15 -14 20 0 12 -151 213 -161 213
-4 0 -7 3 -6 8 4 11 -28 53 -35 45 -4 -3 -7 1 -7 10 0 8 -6 22 -13 29 -7 7
-28 33 -47 58 -19 25 -42 52 -52 61 -10 9 -18 20 -18 25 0 5 -8 17 -17 26 -10
9 -23 23 -28 30 -62 77 -105 127 -105 121 0 -4 -6 2 -13 13 -23 41 -102 133
-114 133 -6 1 -15 6 -19 13 -5 7 -2 8 7 3 12 -7 -12 22 -73 86 -9 9 -19 14
-23 11 -4 -4 -5 -2 -3 4 2 6 -24 40 -58 76 l-61 65 -2 139 c-1 76 -4 239 -5
362 l-2 223 -28 14 c-16 8 -35 15 -42 15 -8 0 -14 4 -14 8 0 5 -26 19 -57 32
-32 13 -61 28 -65 34 -4 6 -8 8 -8 3 0 -4 -11 0 -25 9 -14 9 -25 12 -25 8 0
-5 -4 -4 -8 2 -9 14 -162 89 -179 87 -7 0 -13 3 -13 7 0 8 -57 34 -63 29 -2
-2 -11 4 -21 14 -10 9 -26 17 -36 17 -10 0 -20 4 -22 9 -1 4 -39 25 -83 45
-44 20 -106 50 -137 66 -32 17 -58 27 -58 22 0 -4 -4 -2 -8 3 -4 6 -34 24 -67
39 -33 16 -90 44 -127 62 -38 18 -68 30 -68 26 0 -4 -4 -2 -8 4 -9 13 -71 44
-89 44 -7 0 -13 5 -13 11 0 5 -4 7 -10 4 -5 -3 -10 -1 -10 6 0 7 -3 9 -6 6 -4
-4 -19 2 -33 12 -15 11 -35 21 -46 23 -11 1 -22 6 -25 9 -5 7 -215 109 -227
110 -19 3 -47 30 -48 46 -1 10 -5 38 -9 63 -4 25 -9 61 -12 80 -2 20 -6 45 -8
55 -2 11 -7 49 -10 85 -4 36 -9 81 -11 100 -43 346 -47 894 -11 1270 7 63 9
83 21 160 3 20 7 54 10 75 2 22 4 40 5 40 2 0 6 21 14 65 3 19 10 58 16 85 6
28 13 63 16 78 3 16 12 49 19 75 8 25 12 49 9 54 -3 4 -1 8 5 8 5 0 8 9 6 20
-2 11 -1 20 3 20 4 0 16 30 26 68 11 37 23 74 27 82 3 8 21 53 39 100 18 47
45 111 61 143 15 31 25 57 21 57 -4 0 -2 4 4 8 12 7 38 48 75 120 13 23 26 42
31 42 4 0 8 5 8 11 0 9 59 91 115 157 35 41 165 171 165 164 0 -4 4 -2 8 4 10
15 110 84 122 84 5 0 10 5 10 11 0 5 5 7 10 4 6 -3 10 -3 10 2 0 4 27 19 60
33 33 14 60 28 60 32 0 5 3 7 8 6 15 -4 82 24 82 34 0 6 3 9 6 5 6 -5 44 6
109 33 17 7 37 14 45 15 8 1 56 16 105 33 82 28 247 79 285 88 58 14 106 28
110 33 3 3 14 7 25 9 11 2 51 13 90 24 38 11 80 22 94 25 14 2 28 7 31 11 5 8
23 13 56 16 11 2 26 6 32 10 7 4 20 9 29 11 57 13 109 29 113 34 3 3 14 7 25
9 11 2 44 12 73 22 28 11 52 16 52 12 0 -4 4 -2 8 3 4 6 45 23 92 39 47 16 90
32 95 36 6 3 29 12 53 20 23 7 42 17 42 22 0 5 5 6 10 3 6 -4 22 0 35 9 13 9
31 16 40 16 8 0 15 5 15 12 0 6 3 9 6 6 7 -8 126 50 136 66 4 6 8 8 8 4 0 -12
120 54 120 65 0 6 3 8 6 4 7 -6 93 48 106 67 4 6 8 7 8 3 0 -5 13 2 28 15 16
12 44 34 62 48 19 14 52 42 73 63 22 20 44 37 49 37 5 0 6 5 3 10 -3 6 1 10 9
10 9 0 16 4 16 9 0 5 11 19 25 32 13 13 25 27 25 32 0 4 8 16 18 26 32 37 42
50 42 61 0 5 4 10 9 10 12 0 92 161 85 171 -3 5 -1 9 3 9 14 0 44 95 59 185
10 59 13 321 4 363 -5 21 -10 53 -13 72 -5 40 -16 88 -24 110 -3 8 -8 24 -10
35 -6 35 -65 209 -75 221 -5 7 -10 20 -13 30 -4 23 -46 117 -54 124 -3 3 -6
10 -6 15 0 14 -78 169 -87 173 -5 2 -8 10 -8 18 0 8 -4 14 -8 14 -5 0 -9 6 -9
13 0 6 -19 42 -41 80 -23 37 -42 72 -42 77 0 5 -7 13 -16 18 -9 5 -15 11 -14
13 1 4 -4 23 -16 54 -4 11 -8 23 -9 28 -2 4 -4 9 -5 12 -7 14 -20 94 -21 135
-2 45 8 110 26 159 7 22 11 42 8 45 -4 3 -1 6 5 6 9 0 28 40 23 48 -1 1 4 9
11 17 30 33 38 45 38 55 0 5 5 10 12 10 6 0 9 3 6 6 -4 3 7 18 23 33 16 16 29
33 29 39 0 6 9 13 19 17 11 3 23 15 26 26 4 10 11 17 16 14 5 -4 13 4 18 17 6
13 10 20 10 16 1 -7 33 17 67 50 7 6 15 12 19 12 4 0 13 6 20 13 33 29 45 37
53 37 5 0 15 7 22 15 7 9 28 23 46 31 19 9 34 21 34 26 0 5 5 6 10 3 6 -3 10
-1 10 4 0 6 4 10 8 8 4 -1 29 9 55 23 l47 25 -6 55 c-10 105 -15 134 -28 185
-1 6 -6 26 -10 45 -16 73 -64 188 -107 258 -12 20 -9 26 34 70 26 26 44 51 41
55 -4 4 -2 7 5 7 6 0 23 12 36 27 44 50 124 170 118 177 -3 3 -2 6 4 6 12 0
97 179 89 187 -3 4 -2 11 3 17 34 41 34 336 0 336 -5 0 -6 6 -3 14 3 7 -2 21
-11 29 -9 9 -16 20 -15 24 0 18 -12 43 -21 43 -5 0 -9 5 -9 11 0 18 -37 59
-46 51 -5 -4 -6 -3 -2 2 4 4 -4 25 -16 45 -29 46 -71 133 -68 144 1 4 -3 7 -9
7 -5 0 -8 4 -5 9 4 5 1 22 -5 38 -15 36 -20 210 -7 243 5 14 11 33 13 43 6 29
57 131 69 139 6 5 7 8 1 8 -6 0 -6 3 0 8 6 4 26 27 45 52 19 24 46 57 60 72
14 15 30 33 36 41 7 7 25 24 40 36 16 12 23 19 15 15 -9 -5 -12 -3 -7 4 4 7
13 12 20 12 7 0 21 9 32 21 10 12 56 50 102 86 45 35 82 69 82 74 0 6 4 8 8 5
5 -3 29 15 55 39 26 24 47 41 47 38 0 -3 20 14 44 38 25 23 43 46 40 51 -3 4
1 8 8 8 20 0 66 77 85 140 17 54 26 186 15 205 -3 5 -7 22 -9 37 -7 69 -103
298 -124 298 -5 0 -8 4 -6 9 3 12 -45 91 -56 91 -4 0 -6 4 -3 9 3 5 -7 23 -23
40 -16 17 -27 31 -25 31 5 0 -45 69 -56 80 -3 3 -16 19 -28 37 -25 35 -74 93
-114 135 -15 16 -27 31 -28 33 0 6 -37 49 -67 80 -11 12 -42 45 -67 74 -25 28
-46 48 -47 44 0 -4 -4 2 -10 15 -5 13 -13 20 -19 17 -6 -4 -9 -2 -8 4 4 16
-463 471 -476 464 -6 -3 -8 -3 -4 2 4 4 -9 22 -29 39 -20 17 -49 46 -66 63
-16 18 -34 30 -40 26 -6 -3 -7 -1 -3 6 4 6 0 14 -10 18 -10 4 -31 22 -47 40
-16 18 -34 30 -41 26 -6 -3 -8 -3 -4 2 4 4 -2 17 -15 27 -12 11 -51 45 -87 76
-35 31 -68 56 -73 54 -5 -1 -6 1 -3 6 2 4 -7 17 -21 28 -15 10 -51 42 -81 69
-30 28 -63 55 -73 61 -11 5 -17 13 -14 16 3 3 2 16 -3 28 -11 30 3 103 29 155
23 43 90 115 108 115 6 0 11 4 11 8 0 5 23 19 50 32 28 13 50 27 50 32 0 5 6
8 13 7 6 -1 23 2 37 8 14 6 43 16 65 24 22 7 42 15 44 16 7 5 -43 38 -51 35
-5 -1 -8 2 -8 6 0 4 -15 13 -32 20 -71 25 -162 35 -305 36 -107 1 -119 4 -113
31 1 5 3 21 5 35 2 14 6 39 9 55 3 17 8 55 11 85 3 30 8 73 11 95 18 162 21
195 30 350 8 149 9 414 0 525 -14 189 -22 275 -26 275 -1 0 -3 14 -4 30 -6 58
-18 140 -23 148 -2 4 -6 20 -8 35 -10 75 -55 271 -75 322 -5 14 -12 38 -14 54
-3 16 -9 32 -13 35 -4 3 -9 15 -11 26 -2 11 -7 31 -12 45 -9 26 -19 57 -21 65
0 2 -23 57 -49 122 l-48 118 23 31 c13 17 21 34 18 38 -4 3 -2 6 4 6 12 0 133
191 133 209 0 6 5 11 12 11 6 0 8 3 5 7 -4 3 -3 11 3 18 11 13 110 207 110
216 0 4 10 28 22 55 12 27 23 51 23 54 1 3 4 12 8 20 13 34 42 115 43 120 0 3
7 25 14 50 8 25 15 50 16 55 0 6 3 17 7 25 5 13 12 39 24 90 4 18 8 40 27 143
37 193 39 448 5 604 -5 26 -10 55 -11 63 0 8 -7 40 -15 70 -30 109 -35 176
-19 228 13 41 79 1 141 -88 22 -30 42 -57 45 -60 3 -3 6 -9 7 -15 1 -5 11 -32
24 -60 12 -27 23 -54 24 -60 2 -5 10 -36 19 -67 33 -110 44 -205 42 -360 0
-71 2 -128 7 -128 4 0 8 9 8 20 2 24 1 22 21 90 9 30 19 71 22 90 3 19 8 48
11 64 3 15 8 47 10 70 3 22 8 61 12 86 3 25 7 133 7 240 1 170 -2 234 -19 400
-5 50 -33 206 -46 254 -11 40 -14 53 -24 99 -20 92 -131 399 -146 405 -4 2 -6
9 -3 16 3 7 -2 19 -10 26 -9 7 -13 16 -10 21 3 5 0 9 -6 9 -6 0 -9 4 -5 9 3 5
0 15 -7 23 -7 7 -14 20 -16 28 -2 8 -8 18 -14 21 -5 3 -10 10 -10 15 1 17 -30
74 -40 74 -5 0 -7 4 -4 8 3 5 -5 24 -17 43 -35 55 -46 72 -61 100 -37 65 -114
168 -121 161 -5 -4 -5 -2 -2 4 6 11 -17 45 -63 93 -14 15 -26 30 -27 34 -5 17
-41 56 -47 50 -3 -3 -6 0 -6 8 0 22 -260 290 -274 282 -6 -3 -8 -3 -4 2 4 4
-7 19 -23 34 -17 14 -50 44 -73 65 -22 22 -77 67 -121 100 -44 33 -84 66 -88
73 -4 7 -13 13 -18 13 -6 0 -31 16 -55 36 -24 20 -44 32 -44 28 0 -5 -4 -4 -8
1 -14 20 -80 64 -86 58 -3 -4 -6 -2 -6 4 0 6 -44 37 -97 69 -54 32 -109 66
-122 76 -13 10 -27 15 -32 12 -5 -3 -9 0 -9 5 0 6 -7 11 -15 11 -8 0 -15 3
-15 8 0 4 -10 12 -23 18 -12 5 -61 31 -109 57 -49 25 -88 43 -88 39 0 -4 -4
-2 -8 4 -8 13 -141 77 -159 77 -7 0 -13 4 -13 8 0 8 -74 35 -76 28 0 -2 -8 4
-18 14 -10 9 -22 15 -27 12 -5 -4 -9 -1 -9 4 0 6 -4 11 -9 11 -5 0 -31 9 -57
20 l-48 21 21 20 c44 45 171 38 353 -18 110 -34 110 -34 107 -15 -4 26 -17 43
-28 37 -5 -4 -9 -2 -9 3 0 11 -210 168 -221 164 -5 -1 -9 2 -9 7 0 9 -102 79
-122 83 -7 2 -15 6 -18 9 -7 9 -94 52 -99 50 -2 -2 -7 1 -10 6 -5 7 -111 55
-131 59 -3 0 -18 6 -34 13 -16 6 -36 13 -45 14 -9 1 -20 5 -26 9 -11 6 -72 21
-95 23 -8 1 -25 4 -36 8 -12 4 -35 9 -50 12 -59 7 -121 14 -179 20 -134 13
-216 24 -410 56 -165 28 -177 30 -200 34 -11 3 -35 7 -54 9 -18 3 -40 8 -50
10 -9 3 -29 8 -46 10 -16 3 -61 13 -100 21 -38 9 -79 17 -90 19 -16 2 -69 14
-95 21 -3 1 -23 5 -45 9 -22 5 -78 17 -125 28 -47 11 -96 22 -110 24 -14 3
-72 16 -130 30 -58 14 -116 27 -130 29 -14 3 -43 9 -65 16 -22 6 -51 12 -65
14 -14 2 -25 4 -25 5 0 1 -7 3 -15 5 -8 1 -44 10 -80 19 -36 9 -78 18 -95 21
-16 2 -57 12 -90 21 -33 9 -67 17 -75 18 -8 1 -26 5 -40 9 -14 4 -36 9 -50 11
-14 2 -56 12 -95 21 -38 10 -79 19 -90 20 -11 1 -27 5 -35 8 -15 6 -209 48
-245 53 -11 1 -20 3 -20 4 0 1 -7 3 -15 5 -8 1 -83 17 -167 34 -83 18 -162 34
-175 35 -13 2 -30 6 -38 9 -8 3 -55 13 -105 21 -49 9 -101 18 -115 21 -26 5
-128 23 -168 30 -12 2 -30 6 -40 9 -9 3 -37 8 -62 11 -42 4 -65 8 -130 20 -14
3 -43 7 -65 10 -22 4 -65 10 -95 15 -30 6 -75 12 -100 15 -25 3 -56 7 -70 10
-14 3 -43 7 -65 10 -105 13 -142 17 -165 20 -14 1 -50 6 -80 10 -30 4 -68 8
-85 10 -51 4 -178 16 -225 21 -96 9 -290 23 -430 30 -101 5 -679 12 -683 8z
m7894 -5576 c5 1 8 -1 7 -5 -1 -5 9 -28 24 -53 36 -63 62 -140 75 -225 13 -86
4 -389 -12 -415 -2 -3 -6 -25 -10 -48 -3 -24 -10 -53 -14 -65 -7 -19 -10 -16
-30 27 -11 27 -21 52 -21 57 0 5 -4 9 -10 9 -5 0 -7 6 -4 13 3 8 -2 20 -11 27
-8 7 -15 19 -15 27 0 8 -5 24 -12 36 -7 12 -13 27 -13 32 -3 22 -30 75 -38 75
-4 0 -6 4 -2 9 3 5 -3 31 -14 58 -10 27 -20 62 -22 78 -2 17 -6 35 -10 40 -8
12 -4 159 5 199 4 15 18 50 32 77 13 27 22 49 19 49 -3 0 3 8 13 19 17 18 17
18 36 -3 10 -11 23 -20 27 -18z m-6158 -15193 c21 -2 75 -9 120 -15 45 -5 91
-12 102 -14 11 -2 61 -9 110 -16 50 -6 101 -14 115 -16 14 -3 75 -13 135 -24
61 -11 119 -21 130 -23 11 -3 38 -8 60 -12 22 -4 49 -9 60 -11 16 -3 212 -43
285 -59 8 -2 53 -13 100 -25 98 -25 129 -32 150 -34 9 -1 20 -4 25 -8 10 -5
62 -21 80 -23 6 -1 18 -5 27 -10 10 -4 29 -8 43 -9 14 0 25 -4 25 -7 0 -3 26
-12 58 -19 31 -7 61 -15 66 -18 7 -4 278 -98 331 -116 6 -1 24 -9 40 -15 17
-7 46 -19 65 -26 19 -7 61 -24 92 -39 31 -14 62 -26 67 -26 6 0 11 -4 11 -10
0 -5 9 -10 19 -10 11 0 23 -5 26 -10 4 -6 11 -8 16 -5 5 4 9 3 9 -2 0 -9 48
-33 67 -33 7 0 13 -3 13 -8 0 -8 61 -38 73 -34 4 1 7 -1 7 -6 0 -4 21 -19 47
-32 26 -14 52 -28 58 -33 32 -24 87 -57 94 -57 5 0 11 -7 15 -15 3 -8 12 -15
19 -15 8 0 22 -9 32 -20 10 -11 22 -17 28 -13 6 3 7 1 3 -5 -4 -7 -2 -12 3
-12 6 0 11 -5 11 -11 0 -6 -9 -8 -22 -3 -13 4 -31 8 -40 8 -10 0 -18 3 -18 7
0 4 -12 9 -27 12 -33 6 -52 10 -113 27 -25 7 -49 13 -55 15 -5 1 -17 5 -25 8
-15 6 -94 28 -116 33 -7 1 -54 14 -105 29 -52 15 -101 29 -109 30 -8 1 -46 11
-84 23 -37 12 -78 24 -90 27 -11 2 -68 19 -126 36 -58 17 -109 32 -115 33 -5
1 -30 8 -55 15 -25 7 -45 12 -45 12 0 -1 -27 8 -60 19 -33 11 -60 20 -60 20 0
-1 -7 1 -15 3 -49 15 -131 39 -142 41 -7 2 -20 6 -28 9 -15 5 -63 17 -77 18
-5 0 -12 4 -18 9 -5 4 -26 11 -45 16 -19 4 -37 8 -40 9 -3 1 -51 16 -108 34
-57 18 -109 34 -115 35 -7 2 -19 6 -27 9 -41 15 -121 38 -139 40 -12 1 -21 4
-21 8 0 6 -44 21 -75 25 -5 0 -17 4 -25 7 -28 11 -142 49 -154 52 -6 1 -18 5
-26 8 -23 9 -113 38 -130 42 -8 2 -38 13 -67 23 -28 11 -54 17 -57 14 -3 -3
-6 1 -6 8 0 7 -3 11 -6 8 -3 -3 -33 5 -66 18 -34 13 -64 22 -66 19 -3 -3 -10
-1 -16 4 -9 8 -127 54 -188 75 -10 3 -18 9 -18 14 0 9 19 8 103 -3z m-1018
-2325 c19 -11 35 -16 35 -12 0 4 4 2 8 -4 4 -6 19 -17 34 -25 16 -8 63 -32
105 -54 43 -21 80 -42 83 -45 8 -9 64 -34 73 -32 4 1 7 -2 7 -7 0 -5 10 -13
23 -16 12 -4 45 -21 72 -38 28 -16 56 -30 63 -30 6 0 12 -4 12 -8 0 -4 10 -11
22 -14 11 -4 43 -20 70 -36 26 -16 48 -25 48 -21 0 4 4 2 8 -3 4 -6 21 -17 37
-25 17 -8 43 -23 59 -34 20 -13 27 -15 22 -5 -6 11 -5 11 6 -1 12 -14 56 -38
228 -127 30 -15 58 -32 61 -37 4 -5 11 -6 17 -2 5 3 12 -1 16 -9 3 -8 14 -15
25 -15 11 0 21 -4 23 -9 2 -4 50 -32 108 -62 58 -29 117 -61 131 -71 14 -9 29
-15 33 -11 3 3 6 2 6 -4 0 -9 34 -24 49 -22 2 0 7 -3 10 -8 7 -11 218 -124
227 -123 4 1 10 -2 13 -7 3 -4 31 -21 61 -37 107 -57 165 -89 179 -100 12 -9
13 -8 7 4 -7 13 -6 13 6 0 7 -8 36 -26 63 -40 28 -14 52 -28 53 -32 2 -5 12
-8 23 -8 10 0 19 -3 19 -7 0 -5 25 -19 55 -33 30 -14 55 -28 55 -31 0 -6 31
-17 47 -17 3 0 9 -4 12 -9 3 -5 26 -19 51 -32 25 -13 69 -36 98 -52 28 -16 52
-26 52 -22 0 4 4 3 8 -3 11 -17 98 -64 106 -57 3 4 6 1 6 -6 0 -7 4 -10 9 -7
5 3 11 -1 15 -9 3 -8 15 -15 26 -15 11 0 20 -3 20 -8 0 -4 20 -16 45 -27 25
-11 45 -24 45 -29 0 -5 3 -7 6 -3 4 3 13 -1 21 -9 8 -8 19 -12 24 -9 5 4 9 1
9 -4 0 -6 4 -11 10 -11 5 0 32 -14 61 -30 28 -17 56 -32 62 -33 6 -1 18 -8 25
-15 8 -7 18 -10 23 -7 5 4 9 1 9 -4 0 -6 7 -11 15 -11 8 0 15 -4 15 -10 0 -5
6 -10 13 -10 6 0 23 -9 37 -20 14 -11 33 -20 43 -20 9 0 17 -3 17 -8 0 -4 15
-13 33 -21 17 -8 49 -25 69 -38 20 -12 43 -24 50 -25 7 -2 19 -9 26 -16 8 -7
17 -10 22 -7 5 3 10 1 12 -3 3 -9 57 -40 168 -98 30 -16 57 -31 60 -34 3 -4
39 -23 80 -44 91 -47 133 -69 140 -76 3 -3 32 -19 65 -35 33 -17 62 -33 65
-37 7 -9 63 -32 73 -30 4 1 7 -2 7 -8 0 -5 20 -19 44 -30 25 -11 48 -25 51
-30 4 -6 11 -8 16 -5 5 4 9 3 9 -2 0 -4 15 -15 33 -22 17 -8 48 -25 67 -37 19
-13 41 -24 49 -26 8 -2 23 -11 33 -21 10 -10 23 -15 28 -12 6 4 10 1 10 -5 0
-6 5 -8 10 -5 6 3 10 1 10 -4 0 -6 18 -18 40 -27 22 -9 40 -19 40 -23 0 -3 25
-17 55 -31 30 -14 55 -28 55 -32 0 -5 7 -8 15 -8 8 0 15 -5 15 -11 0 -5 4 -8
9 -5 5 3 14 -1 21 -9 7 -8 16 -12 21 -9 5 3 9 1 9 -5 0 -11 39 -27 55 -22 5 1
7 -1 3 -5 -6 -5 51 -44 64 -44 2 0 3 89 4 198 0 178 8 354 18 407 3 17 18 131
21 160 2 14 16 95 22 120 2 11 7 34 10 50 7 42 9 48 18 68 4 10 5 21 1 24 -3
3 -2 11 4 17 5 7 11 25 14 41 3 17 21 76 40 133 19 56 32 102 28 102 -4 0 -1
4 6 9 7 4 14 18 15 29 1 12 5 22 10 22 5 0 7 6 4 14 -3 8 -1 16 4 18 6 2 11
11 12 20 2 9 8 22 15 30 6 8 13 24 15 36 2 12 7 25 11 29 11 11 39 76 38 86
-1 4 2 7 6 7 5 0 14 16 22 35 8 19 17 35 22 35 4 0 8 5 8 11 0 6 9 24 21 40
11 16 17 29 12 29 -4 0 0 5 10 11 9 6 15 14 12 19 -3 4 2 10 10 14 8 3 15 10
15 16 0 6 5 16 10 23 24 28 46 57 60 77 8 12 29 39 47 58 17 20 29 40 26 45
-2 4 -1 6 4 5 4 -2 8 -1 8 2 0 3 16 20 35 39 19 18 34 37 33 42 -2 5 0 8 5 6
4 -1 33 24 65 55 32 31 61 58 65 60 4 2 6 7 4 11 -1 5 2 6 7 3 5 -4 21 8 36
26 15 18 24 27 19 19 -5 -9 2 -7 19 5 15 10 27 22 27 27 0 4 7 7 15 7 7 0 18
6 22 14 9 15 73 50 73 40 0 -7 -51 -101 -75 -138 -10 -14 -15 -26 -11 -26 3 0
-2 -9 -11 -19 -19 -23 -104 -181 -97 -181 3 0 -3 -12 -13 -27 -23 -33 -93
-180 -93 -194 0 -5 -5 -9 -12 -9 -6 0 -8 -3 -5 -6 4 -4 0 -19 -8 -33 -13 -22
-36 -75 -40 -91 0 -3 -11 -27 -23 -54 -12 -27 -22 -51 -22 -55 -1 -3 -9 -24
-20 -46 -10 -22 -16 -43 -14 -47 3 -5 0 -8 -5 -8 -6 0 -11 -6 -11 -14 0 -8 -4
-25 -9 -38 -5 -13 -9 -26 -10 -31 0 -4 -8 -21 -16 -37 -9 -17 -13 -30 -9 -30
4 0 1 -7 -6 -15 -7 -8 -10 -15 -6 -15 4 0 0 -13 -9 -29 -8 -17 -17 -40 -19
-53 -3 -13 -5 -23 -6 -23 -1 0 -3 -7 -5 -15 -2 -8 -10 -36 -19 -61 -8 -25 -18
-56 -20 -70 -3 -13 -5 -25 -7 -26 -1 -2 -2 -6 -4 -10 -1 -5 -5 -20 -9 -34 -4
-14 -9 -34 -11 -45 -2 -10 -4 -19 -5 -19 -1 0 -3 -7 -5 -15 -7 -38 -26 -127
-31 -150 -3 -14 -7 -35 -9 -47 -2 -12 -6 -34 -9 -50 -12 -57 -18 -99 -31 -223
-12 -102 -14 -145 -14 -295 0 -139 2 -180 13 -285 5 -48 10 -78 32 -194 3 -16
7 -33 10 -38 9 -14 -20 -9 -121 24 -55 17 -102 32 -105 33 -3 0 -11 4 -17 8
-7 5 -17 5 -23 2 -5 -3 -10 -1 -10 5 0 7 -7 10 -15 6 -8 -3 -15 0 -15 6 0 6
-3 8 -6 5 -4 -4 -19 0 -33 7 -27 15 -278 115 -297 119 -7 2 -19 9 -28 16 -8 7
-20 10 -26 6 -5 -3 -10 -2 -10 2 0 9 -63 36 -76 33 -4 -1 -10 2 -13 7 -3 4
-26 18 -51 29 -159 76 -226 105 -234 104 -5 -1 -12 3 -15 8 -7 12 -123 67
-133 64 -5 -1 -8 2 -8 7 0 10 -27 21 -44 20 -5 0 -12 3 -15 8 -3 5 -42 27 -86
50 -44 22 -96 50 -117 61 -20 11 -39 18 -42 15 -3 -4 -6 -1 -6 5 0 7 -7 12
-15 12 -8 0 -15 5 -15 11 0 6 -6 9 -14 6 -8 -3 -17 1 -20 9 -3 9 -10 13 -15
10 -5 -4 -11 -2 -13 3 -1 5 -10 11 -18 13 -8 2 -17 6 -20 9 -3 3 -36 23 -75
44 -38 21 -80 45 -92 53 -13 8 -23 10 -23 6 0 -5 -4 -4 -8 2 -13 19 -98 64
-107 56 -4 -4 -5 -2 -1 5 6 11 -29 30 -46 25 -5 -1 -8 2 -8 6 0 5 -21 20 -47
33 -27 13 -53 28 -59 34 -6 5 -28 19 -50 30 -21 11 -40 23 -42 28 -2 4 -8 7
-13 7 -6 0 -26 11 -46 25 -20 13 -40 22 -45 19 -4 -3 -8 0 -8 6 0 6 -10 15
-22 21 -24 11 -29 13 -124 72 -34 20 -65 37 -68 37 -4 0 -16 9 -28 20 -12 11
-28 20 -35 20 -7 0 -13 5 -13 10 0 6 -5 10 -11 10 -5 0 -26 11 -46 25 -20 13
-40 22 -45 19 -4 -3 -8 -1 -8 4 0 10 -95 72 -111 72 -5 0 -9 5 -9 10 0 6 -7
10 -15 10 -8 0 -15 5 -15 10 0 6 -5 10 -11 10 -6 0 -34 15 -62 33 -29 19 -91
59 -139 90 -48 32 -90 57 -94 57 -3 0 -12 7 -21 15 -8 8 -19 12 -25 9 -6 -4
-8 -3 -5 3 3 5 -8 17 -26 26 -41 22 -198 123 -278 180 -21 15 -41 27 -44 27
-9 0 -69 44 -73 53 -2 4 -8 7 -14 7 -6 0 -32 16 -59 36 -27 20 -49 32 -49 28
0 -4 -6 -1 -12 7 -7 8 -60 46 -118 84 -58 38 -111 75 -118 82 -8 7 -17 11 -22
8 -5 -3 -10 -1 -12 4 -1 5 -39 33 -83 63 -44 30 -104 71 -132 91 -29 20 -55
37 -58 37 -3 0 -15 9 -27 20 -12 11 -27 20 -34 20 -6 0 -15 7 -18 16 -3 8 -10
12 -16 9 -5 -3 -10 -2 -10 3 0 9 -61 51 -75 52 -2 0 -15 10 -28 23 -13 12 -68
51 -121 87 -54 36 -104 70 -111 77 -7 7 -15 9 -19 6 -3 -4 -6 -2 -6 4 0 6 -27
28 -60 49 -33 22 -60 42 -60 47 0 4 -7 7 -15 7 -8 0 -15 5 -15 10 0 6 -4 10
-10 10 -5 0 -21 10 -36 23 -14 12 -28 21 -31 19 -3 -2 -11 5 -19 15 -7 10 -14
14 -14 10 0 -4 -10 2 -22 14 -13 11 -39 32 -60 45 -20 13 -39 28 -43 34 -3 6
-11 8 -16 5 -5 -4 -9 1 -9 9 0 21 12 20 55 -4z"/>
</g>
</svg>
