<?xml version="1.0" encoding="utf-8"?>
<!-- Generator: Adobe Illustrator 21.1.0, SVG Export Plug-In . SVG Version: 6.00 Build 0)  -->
<svg version="1.1" id="Layer_1" xmlns="http://www.w3.org/2000/svg" xmlns:xlink="http://www.w3.org/1999/xlink" x="0px" y="0px"
	 viewBox="0 0 3000 3000" style="enable-background:new 0 0 3000 3000;" xml:space="preserve">
<style type="text/css">
	.st0{fill:#FF4466;}
</style>
<g id="i3hNED.tif">
	<g>
		<path class="st0" d="M2711.6,1503.9c0,398.8,0.3,797.6-0.2,1196.4c-0.2,158.3-120.8,290.4-279.8,294.9
			c-218,6.1-436.2,4.1-654.3,4.5c-355.7,0.5-711.4,0.5-1067.2-0.3c-55.3-0.1-112.3,1.8-165.7-9.9
			c-148.3-32.3-235.4-152.8-235.9-319.8c-0.8-291.8-0.1-583.6-0.1-875.4c0-465.5-0.3-931,0.3-1396.5c0.1-52.6-1.6-106.6,8.7-157.6
			C348,90.5,469.3,1.3,638.6,0.5c239-1,478-0.3,717-0.3c330.7,0,661.4-0.3,992.1,0.3c40.1,0.1,81.4-0.2,120.2,8.2
			c144.9,31.4,243.8,157.8,243.8,307c0.1,396,0,792,0,1188.1C2711.7,1503.9,2711.7,1503.9,2711.6,1503.9z M1510.4,1811
			c-247.3,0-494.5-0.1-741.8,0.1c-72.8,0-122.5,32.6-142.5,92.4c-34.3,102.9,31.5,193.2,143.8,194c170.9,1.2,341.7,0.4,512.6,0.4
			c318.1,0,636.2,0,954.3-0.1c61.9,0,116.1-15.5,145.8-76.2c50.2-102.7-16.2-210.1-130.4-210.3C2005,1810.7,1757.7,1811,1510.4,1811
			z M2085.2,1496c18.3-127.5-59.3-272.5-180.9-344.8c-86.4-51.4-180.8-77.6-279.8-86.3c-157.3-13.9-313.8-12-463.4,47.2
			c-122.5,48.5-213.4,129.4-246.4,262c-9.7,38.9-11.5,79.8-17.2,122C1299.7,1496,1691.2,1496,2085.2,1496z M1285.9,2690.2
			c172.3,0,344.6,0.3,516.9-0.1c90.6-0.2,145.3-53.3,146-139.9c0.7-88.9-53.9-145.9-145.1-146.1c-346-0.8-692-0.9-1038.1,0.1
			c-90.9,0.3-148.3,59.1-147.6,145.2c0.7,86.1,59,140.7,150.9,140.8C941.3,2690.4,1113.6,2690.3,1285.9,2690.2z M1200.3,605.6
			c-0.1,167.6,126.8,294.6,295.1,295.5c162.8,0.9,294.4-130.2,294.3-293.1c-0.1-167.2-128.9-297.9-293.8-298.2
			C1329.7,309.7,1200.4,439.1,1200.3,605.6z"/>
	</g>
</g>
</svg>
